<svg xmlns="http://www.w3.org/2000/svg" version="1.1" xmlns:xlink="http://www.w3.org/1999/xlink" xmlns:svgjs="http://svgjs.com/svgjs" width="1545" height="1545"><svg version="1.1" width="1545" height="1545" id="SvgjsSvg1008" sodipodi:docname="satlas_light.svg" inkscape:version="1.2.2 (b0a8486541, 2022-12-01)" xmlns:inkscape="http://www.inkscape.org/namespaces/inkscape" xmlns:sodipodi="http://sodipodi.sourceforge.net/DTD/sodipodi-0.dtd" xmlns="http://www.w3.org/2000/svg" xmlns:svg="http://www.w3.org/2000/svg">
  <sodipodi:namedview id="SvgjsSodipodi:namedview1007" pagecolor="#ffffff" bordercolor="#000000" borderopacity="0.25" inkscape:showpageshadow="2" inkscape:pageopacity="0.0" inkscape:pagecheckerboard="0" inkscape:deskcolor="#d1d1d1" showgrid="false" inkscape:zoom="0.35795082" inkscape:cx="90.794596" inkscape:cy="701.21365" inkscape:window-width="2560" inkscape:window-height="1377" inkscape:window-x="-8" inkscape:window-y="-8" inkscape:window-maximized="1" inkscape:current-layer="g6273"></sodipodi:namedview>
  <defs id="SvgjsDefs1006"></defs>
  <g id="SvgjsG1005" transform="translate(-0.1746,117.52925)">
    <g id="SvgjsG1004" transform="translate(-152.03343,-7.50068)">
      <path fill="none" stroke="#02063b" paint-order="fill stroke markers" d="m 261,780.52558 1,0.39262 1,0.38212 1,0.37161 1,0.3611 1,0.35057 1,0.34003 1,0.32948 1,0.31893 1,0.30837 1,0.29779 1,0.28721 1,0.27662 1,0.26603 1,0.25542 1,0.24481 1,0.2342 1,0.22356 1,0.21294 1,0.2023 1,0.19166 1,0.18101 1,0.17036 1,0.1597 1,0.14904 1,0.13838 1,0.1277 1,0.11704 1,0.10635 1,0.0957 1,0.085 1,0.0743 1,0.0636 1,0.0529 1,0.0422 1,0.0316 1,0.0209 1,0.0102 1,-5.2e-4 1,-0.0112 1,-0.0219 1,-0.0326 1,-0.0433 1,-0.054 1,-0.0647 1,-0.0754 1,-0.086 1,-0.0967 1,-0.10739 1,-0.11807 1,-0.12875 1,-0.13941 1,-0.15008 1,-0.16074 1,-0.1714 1,-0.18205 1,-0.19269 1,-0.20334 1,-0.21397 1,-0.22461 1,-0.23522 1,-0.24585 1,-0.25645 1,-0.26706 1,-0.27766 1,-0.28824 1,-0.29882 1,-0.3094 1,-0.31995 1,-0.33052 1,-0.34106 1,-0.35159 1,-0.36212 1,-0.37264 1,-0.38314 1,-0.39364 1,-0.40412 1,-0.41459 1,-0.42506 1,-0.43551 1,-0.44594 1,-0.45637 1,-0.46679 1,-0.47718 1,-0.48757 1,-0.49794 1,-0.50831 1,-0.51864 1,-0.52898 1,-0.5393 1,-0.5496 1,-0.55988 1,-0.57015 1,-0.58041 1,-0.59065 1,-0.60087 1,-0.61107 1,-0.62126 1,-0.63144 1,-0.64159 1,-0.65173 1,-0.66184 1,-0.67194 1,-0.68203 1,-0.69209 1,-0.70213 1,-0.71216 1,-0.72216 1,-0.73214 1,-0.74211 1,-0.75205 1,-0.76197 1,-0.77187 1,-0.78176 1,-0.79161 1,-0.80145 1,-0.81126 1,-0.82106 1,-0.83082 1,-0.84057 1,-0.8503 1,-0.85999 1,-0.86966 1,-0.87932 1,-0.88895 1,-0.89854 1,-0.90813 1,-0.91768 1,-0.9272 1,-0.9367 1,-0.94618 1,-0.95563 1,-0.96505 1,-0.97445 1,-0.98381 1,-0.99316 1,-1.00247 1,-1.01176 1,-1.02101 1,-1.03025 1,-1.03945 1,-1.04861 1,-1.05777 1,-1.06687 1,-1.07596 1,-1.08502 1,-1.09404 1,-1.10304 1,-1.11199 1,-1.12094 1,-1.12983 1,-1.13871 1,-1.14754 1,-1.15635 1,-1.16513 1,-1.17387 1,-1.18258 1,-1.19126 1,-1.1999 1,-1.20852 1,-1.21709 1,-1.22564 1,-1.23415 1,-1.24262 1,-1.25107 1,-1.25947 1,-1.26784 1,-1.27619 1,-1.28448 1,-1.29275 1,-1.30098 1,-1.30918 1,-1.31733 1,-1.32546 1,-1.33354 1,-1.34159 1,-1.3496 1,-1.35757 1,-1.36551 1,-1.37341 1,-1.38126 1,-1.38909 1,-1.39687 1,-1.40462 1,-1.41232 1,-1.41999 1,-1.42761 1,-1.43521 1,-1.44275 1,-1.45026 1,-1.45772 1,-1.46516 1,-1.47254 1,-1.47989 1,-1.48719 1,-1.49445 1,-1.50168 1,-1.50886 1,-1.516 1,-1.52309 1,-1.53015 1,-1.53716 1,-1.54413 1,-1.55106 1,-1.55795 1,-1.56478 1,-1.57158 1,-1.57834 1,-1.58504 1,-1.59171 1,-1.59834 1,-1.60491 1,-1.61145 1,-1.61793 1,-1.62438 1,-1.63078 1,-1.63713 1,-1.64344 1,-1.64971 1,-1.65592 1,-1.66209 1,-1.66822 1,-1.6743 1,-1.68033 1,-1.68632 1,-1.69226 1,-1.69815 1,-1.70399 1,-1.7098 1,-1.71554 1,-1.72125 1,-1.7269 1,-1.73252 1,-1.73807 1,-1.74359 1,-1.74904 1,-1.75447 1,-1.75983 1,-1.76515 1,-1.77042 1,-1.77563 1,-1.78081 1,-1.78593 1,-1.791 1,-1.79603 1,-1.80099 1,-1.80592 1,-1.8108 1,-1.81561 1,-1.82039 1,-1.82511 1,-1.82978 1,-1.8344 1,-1.83897 1,-1.84349 1,-1.84795 1,-1.85238 1,-1.85673 1,-1.86106 1,-1.86531 1,-1.86953 1,-1.87368 1,-1.87779 1,-1.88185 1,-1.88585 1,-1.8898 1,-1.89369 1,-1.89755 1,-1.90133 1,-1.90508 1,-1.90876 1,-1.9124 1,-1.91599 1,-1.91951 1,-1.92298 1,-1.92641 1,-1.92978 1,-1.93309 1,-1.93635 1,-1.93957 1,-1.94271 1,-1.94582 1,-1.94887 1,-1.95185 1,-1.9548 1,-1.95768 1,-1.96051 1,-1.96329 1,-1.96601 1,-1.96868 1,-1.97129 1,-1.97385 1,-1.97635 1,-1.9788 1,-1.98119 1,-1.98354 1,-1.98581 1,-1.98805 1,-1.99022 1,-1.99234 1,-1.9944 1,-1.99642 1,-1.99836 1,-2.00026 1,-2.00211 1,-2.00389 1,-2.00562 1,-2.0073 1,-2.00892 1,-2.01049 1,-2.01199 1,-2.01345 1,-2.01484 1,-2.01619 1,-2.01747 1,-2.0187 1,-2.01987 1,-2.021 1,-2.02205 1,-2.02306 1,-2.02401 1,-2.02491 1,-2.02574 1,-2.02652 1,-2.02725 1,-2.02792 1,-2.02853 1,-2.02909 1,-2.02959 1,-2.03004 1,-2.03042 1,-2.03076 1,-2.03103 1,-2.03125 1,-2.03141 1,-2.03153 1,-2.03157 1,-2.03156 1,-2.03151 1,-2.03139 1,-2.03121 1,-2.03098 1,-2.03069 1,-2.03036 1,-2.02995 1,-2.0295 1,-2.02898 1,-2.02842 1,-2.02779 1,-2.02712 1,-2.02637 1,-2.02559 1,-2.02473 1,-2.02383 1,-2.02287 1,-2.02185 1,-2.02078 1,-2.01965 1,-2.01847 1,-2.01722 1,-2.01593 1,-2.01458 1,-2.01317 1,-2.0117 1,-2.01018 1,-2.00861 1,-2.00698 1,-2.00529 1,-2.00355 1,-2.00175 1,-1.99989 1,-1.99799 1,-1.99603 1,-1.994 1,-1.99193 1,-1.98981 1,-1.98761 1,-1.98538 1,-1.98308 1,-1.98073 1,-1.97833 1,-1.97587 1,-1.97335 1,-1.97079 1,-1.96816 1,-1.96549 1,-1.96275 1,-1.95996 1,-1.95713 1,-1.95422 1,-1.95128 1,-1.94828 1,-1.94522 1,-1.9421 1,-1.93895 1,-1.93572 1,-1.93245 1,-1.92913 1,-1.92574 1,-1.92231 1,-1.91883 1,-1.91529 1,-1.91169 1,-1.90805 1,-1.90436 1,-1.9006 1,-1.8968 1,-1.89294 1,-1.88903 1,-1.88507 1,-1.88106 1,-1.877 1,-1.87288 1,-1.86871 1,-1.86449 1,-1.86021 1,-1.85589 1,-1.85152 1,-1.84709 1,-1.84262 1,-1.83808 1,-1.8335 1,-1.82888 1,-1.82419 1,-1.81946 1,-1.81468 1,-1.80985 1,-1.80496 1,-1.80004 1,-1.79504 1,-1.79002 1,-1.78494 1,-1.7798 1,-1.77463 1,-1.76939 1,-1.76412 1,-1.75879 1,-1.75341 1,-1.74799 1,-1.74252 1,-1.73699 1,-1.73142 1,-1.72581 1,-1.72014 1,-1.71443 1,-1.70867 1,-1.70286 1,-1.697 1,-1.69111 1,-1.68515 1,-1.67916 1,-1.67312 1,-1.66703 1,-1.66089 1,-1.65472 1,-1.64849 1,-1.64221 1,-1.6359 1,-1.62954 1,-1.62312 1,-1.61668 1,-1.61018 1,-1.60363 1,-1.59705 1,-1.59042 1,-1.58374 1,-1.57702 1,-1.57026 1,-1.56346 1,-1.5566 1,-1.54971 1,-1.54278 1,-1.5358 1,-1.52878 1,-1.52172 1,-1.51461 1,-1.50746 1,-1.50027 1,-1.49305 1,-1.48577 1,-1.47846 1,-1.4711 1,-1.46371 1,-1.45628 1,-1.4488 1,-1.44128 1,-1.43373 1,-1.42613 1,-1.4185 1,-1.41082 1,-1.40311 1,-1.39536 1,-1.38757 1,-1.37974 1,-1.37187 1,-1.36397 1,-1.35602 1,-1.34804 1,-1.34002 1,-1.33197 1,-1.32388 1,-1.31575 1,-1.30758 1,-1.29938 1,-1.29114 1,-1.28287 1,-1.27457 1,-1.266214 1,-1.257838 1,-1.249425 1,-1.240975 1,-1.232493 1,-1.223976 1,-1.215425 1,-1.20684 1,-1.198222 1,-1.189571 1,-1.180886 1,-1.17217 1,-1.16342 1,-1.154638 1,-1.145825 1,-1.13698 1,-1.128102 1,-1.119195 1,-1.110255 1,-1.101286 1,-1.092285 1,-1.083254 1,-1.074194 1,-1.065103 1,-1.055984 1,-1.046834 1,-1.037656 1,-1.028449 1,-1.019214 1,-1.009951 1,-1.000658 1,-0.991339 1,-0.981993 1,-0.972619 1,-0.963217 1,-0.95379 1,-0.944336 1,-0.934856 1,-0.92535 1,-0.915818 1,-0.906261 1,-0.896678 1,-0.887072 1,-0.87744 1,-0.867784 1,-0.858104 1,-0.848401 1,-0.838673 1,-0.828923 1,-0.81915 1,-0.809353 1,-0.799535 1,-0.789694 1,-0.779832 1,-0.769947 1,-0.760042 1,-0.750115 1,-0.740169 1,-0.7302 1,-0.720212 1,-0.710205 1,-0.700176 1,-0.69013 1,-0.680063 1,-0.669979 1,-0.659875 1,-0.649753 1,-0.639613 1,-0.629456 1,-0.61928 1,-0.609089 1,-0.598879 1,-0.588654 1,-0.578412 1,-0.568154 1,-0.55788 1,-0.547591 1,-0.537287 1,-0.526967 1,-0.516634 1,-0.506286 1,-0.495924 1,-0.485547 1,-0.475159 1,-0.464756 1,-0.45434 1,-0.443913 1,-0.433472 1,-0.423021 1,-0.412556 1,-0.402081 1,-0.391594 1,-0.381097 1,-0.370589 1,-0.360071 1,-0.349543 1,-0.339005 1,-0.328457 1,-0.317901 1,-0.307337 1,-0.296762 1,-0.286181 1,-0.275591 1,-0.264993 1,-0.254388 1,-0.243777 1,-0.233158 1,-0.222534 1,-0.211901 1,-0.201265 1,-0.190623 1,-0.179974 1,-0.169321 1,-0.158664 1,-0.148002 1,-0.137336 1,-0.126665 1,-0.115993 1,-0.105315 1,-0.09464 1,-0.08395 1,-0.07327 1,-0.06258 1,-0.0519 1,-0.0412 1,-0.03051 1,-0.01982 1,-0.0091 1,0.0016 1,0.01225 1,0.02295 1,0.03364 1,0.04433 1,0.05502 1,0.0657 1,0.07639 1,0.08707 1,0.09776 1,0.108436 1,0.119111 1,0.129784 1,0.140453 1,0.151117 1,0.161778 1,0.172435 1,0.183086 1,0.193732 1,0.204374 1,0.215009 1,0.225638 1,0.236262 1,0.246878 1,0.257488 1,0.26809 1,0.278686 1,0.289273 1,0.299853 1,0.310424 1,0.320987 1,0.33154 1,0.342085 1,0.35262 1,0.363145 1,0.373661 1,0.384165 1,0.394659 1,0.405143 1,0.415615 1,0.426075 1,0.436525 1,0.446961 1,0.457385 1,0.467797 1,0.478195 1,0.488581 1,0.498953 1,0.50931 1,0.519655 1,0.529984 1,0.540299 1,0.550599 1,0.560884 1,0.571153 1,0.581406 1,0.591643 1,0.601864 1,0.612069 1,0.622255 1,0.632425 1,0.642578 1,0.652713 1,0.662828 1,0.672928 1,0.683006 1,0.693067 1,0.703109 1,0.713131 1,0.723132 1,0.733115 1,0.743077 1,0.753018 1,0.762939 1,0.772837 1,0.782716 1,0.792572 1,0.802406 1,0.812218 1,0.822007 1,0.831774 1,0.841518 1,0.851238 1,0.860936 1,0.870608 1,0.880256 1,0.889882 1,0.899481 1,0.909056 1,0.918605 1,0.92813 1,0.937629 1,0.947101 1,0.956547 1,0.965967 1,0.975361 1,0.984726 1,0.994065 1,1.003377 1,1.01266 1,1.021915 1,1.031142 1,1.040341 1,1.049511 1,1.058651 1,1.067762 1,1.076845 1,1.085896 1,1.094918 1,1.103909 1,1.112871 1,1.1218 1,1.1307 1,1.139567 1,1.148403 1,1.157208 1,1.16598 1,1.17472 1,1.183427 1,1.192102 1,1.200744 1,1.209352 1,1.217927 1,1.226467 1,1.234976 1,1.243448 1,1.251886 1,1.26029 1,1.268653 1,1.277 1,1.28529 1,1.29355 1,1.30178 1,1.30997 1,1.31813 1,1.32625 1,1.33432 1,1.34237 1,1.35038 1,1.35835 1,1.36628 1,1.37417 1,1.38203 1,1.38985 1,1.39763 1,1.40537 1,1.41307 1,1.42073 1,1.42835 1,1.43594 1,1.44349 1,1.45099 1,1.45845 1,1.46587 1,1.47326 1,1.4806 1,1.4879 1,1.49516 1,1.50238 1,1.50956 1,1.51669 1,1.52378 1,1.53084 1,1.53784 1,1.54481 1,1.55173 1,1.55861 1,1.56545 1,1.57224 1,1.57899 1,1.5857 1,1.59235 1,1.59898 1,1.60555 1,1.61208 1,1.61857 1,1.625 1,1.6314 1,1.63775 1,1.64405 1,1.65032 1,1.65652 1,1.66269 1,1.66882 1,1.67488 1,1.68092 1,1.6869 1,1.69283 1,1.69872 1,1.70456 1,1.71036 1,1.7161 1,1.72181 1,1.72745 1,1.73305 1,1.73862 1,1.74412 1,1.74957 1,1.75499 1,1.76035 1,1.76567 1,1.77093 1,1.77614 1,1.78131 1,1.78643 1,1.79149 1,1.79651 1,1.80148 1,1.80639 1,1.81127 1,1.81608 1,1.82085 1,1.82556 1,1.83024 1,1.83484 1,1.83942 1,1.84392 1,1.84839 1,1.8528 1,1.85716 1,1.86147 1,1.86573 1,1.86993 1,1.87409 1,1.87819 1,1.88224 1,1.88623 1,1.89018 1,1.89408 1,1.89791 1,1.90171 1,1.90543 1,1.90913 1,1.91275 1,1.91632 1,1.91985 1,1.92333 1,1.92673 1,1.93011 1,1.93341 1,1.93667 1,1.93987 1,1.94302 1,1.94612 1,1.94916 1,1.95214 1,1.95508 1,1.95796 1,1.96079 1,1.96355 1,1.96628 1,1.96893 1,1.97154 1,1.9741 1,1.97659 1,1.97903 1,1.98143 1,1.98376 1,1.98603 1,1.98827 1,1.99042 1,1.99255 1,1.9946 1,1.9966 1,1.99856 1,2.00044 1,2.00228 1,2.00406 1,2.00579 1,2.00746 1,2.00908 1,2.01063 1,2.01214 1,2.01358 1,2.01498 1,2.01631 1,2.0176 1,2.01881 1,2.01999 1,2.0211 1,2.02215 1,2.02316 1,2.0241 1,2.02499 1,2.02582 1,2.0266 1,2.02732 1,2.02798 1,2.02859 1,2.02914 1,2.02963 1,2.03008 1,2.03046 1,2.03078 1,2.03106 1,2.03126 1,2.03143 1,2.03153 1,2.03157 1,2.03157 1,2.03149 1,2.03138 1,2.03119 1,2.03095 1,2.03067 1,2.03031 1,2.02991 1,2.02945 1,2.02894 1,2.02836 1,2.02773 1,2.02704 1,2.0263 1,2.0255 1,2.02465 1,2.02374 1,2.02278 1,2.02175 1,2.02067 1,2.01954 1,2.01834 1,2.0171 1,2.0158 1,2.01444 1,2.01303 1,2.01156 1,2.01003 1,2.00845 1,2.00682 1,2.00512 1,2.00338 1,2.00157 1,1.99972 1,1.99779 1,1.99584 1,1.9938 1,1.99173 1,1.98959 1,1.9874 1,1.98516 1,1.98285 1,1.9805 1,1.97809 1,1.97563 1,1.9731 1,1.97054 1,1.9679 1,1.96522 1,1.96248 1,1.95969 1,1.95685 1,1.95394 1,1.95099 1,1.94798 1,1.94492 1,1.9418 1,1.93863 1,1.93541 1,1.93213 1,1.92879 1,1.92542 1,1.92197 1,1.91849 1,1.91494 1,1.91134 1,1.90769 1,1.90399 1,1.90024 1,1.89642 1,1.89256 1,1.88865 1,1.88469 1,1.88067 1,1.87659 1,1.87248 1,1.8683 1,1.86407 1,1.8598 1,1.85547 1,1.85109 1,1.84665 1,1.84218 1,1.83764 1,1.83305 1,1.82842 1,1.82374 1,1.819 1,1.81421 1,1.80937 1,1.80449 1,1.79955 1,1.79456 1,1.78952 1,1.78444 1,1.7793 1,1.77412 1,1.76888 1,1.7636 1,1.75827 1,1.75289 1,1.74746 1,1.74197 1,1.73646 1,1.73088 1,1.72525 1,1.71959 1,1.71387 1,1.70811 1,1.70229 1,1.69643 1,1.69053 1,1.68457 1,1.67857 1,1.67253 1,1.66643 1,1.6603 1,1.65411 1,1.64788 1,1.6416 1,1.63528 1,1.62891 1,1.62251 1,1.61604 1,1.60954 1,1.603 1,1.5964 1,1.58977 1,1.58309 1,1.57637 1,1.5696 1,1.56279 1,1.55593 1,1.54904 1,1.5421 1,1.53512 1,1.52809 1,1.52102 1,1.51392 1,1.50677 1,1.49957 1,1.49233 1,1.48507 1,1.47774 1,1.47039 1,1.46299 1,1.45554 1,1.44807 1,1.44055 1,1.43299 1,1.42539 1,1.41776 1,1.41007 1,1.40236 1,1.3946 1,1.38681 1,1.37897 1,1.3711 1,1.3632 1,1.35524 1,1.34727 1,1.33924 1,1.33118 1,1.32309 1,1.31495 1,1.30679 1,1.29858 1,1.29033 1,1.28207 1,1.27375 1,1.2654 1,1.25702 1,1.2486 1,1.24016 1,1.23166 1,1.22314 1,1.21459 1,1.20601 1,1.19738 1,1.18872 1,1.18004 1,1.17132 1,1.16257 1,1.15378 1,1.14496 1,1.13612 1,1.12724 1,1.11832 1,1.10939 1,1.10041 1,1.0914 1,1.08238 1,1.07331 1,1.06421 1,1.0551 1,1.04594 1,1.03676 1,1.02755 1,1.01831 1,1.00905 1,0.99975 1,0.99043 1,0.98108 1,0.97171 1,0.9623 1,0.95287 1,0.94341 1,0.93393 1,0.92442 1,0.91489 1,0.90533 1,0.89574 1,0.88614 1,0.8765 1,0.86684 1,0.85716 1,0.84746 1,0.83772 1,0.82797 1,0.8182 1,0.8084 1,0.79858 1,0.78873 1,0.77887 1,0.76898 1,0.75908 1,0.74915 1,0.7392 1,0.72922 1,0.71924 1,0.70923 1,0.6992 1,0.68915 1,0.67908 1,0.669 1,0.65889 1,0.64876 1,0.63863 1,0.62846 1,0.61829 1,0.6081 1,0.59788 1,0.58766 1,0.57741 1,0.56716 1,0.55687 1,0.54659 1,0.53629 1,0.52596 1,0.51562 1,0.50528 1,0.49491 1,0.48454 1,0.47415 1,0.46374 1,0.45332 1,0.4429 1,0.43246 1,0.422 1,0.41153 1,0.40106 1,0.39058 1,0.38007 1,0.36957 1,0.35904 1,0.34852 1,0.33798 1,0.32743 1,0.31687 1,0.3063 1,0.29574 1,0.28515 1,0.27456 1,0.26396 1,0.25335 1,0.24274 1,0.23213 1,0.2215 1,0.21086 1,0.20023 1,0.18959 1,0.17893 1,0.16829 1,0.15762 1,0.14697 1,0.13629 1,0.12563 1,0.11495 1,0.10428 1,0.0936 1,0.0829 1,0.0722 1,0.0615 1,0.0508 1,0.0402 1,0.0295 1,0.0188 1,0.008 1,-0.003 1,-0.0133 1,-0.024 1,-0.0347 1,-0.0454 1,-0.0561 1,-0.0667 1,-0.0774 1,-0.0881 1,-0.0988 1,-0.10947 1,-0.12016 1,-0.13082 1,-0.14149 1,-0.15216 1,-0.16281 1,-0.17347 1,-0.18413 1,-0.19477 1,-0.20541 1,-0.21604 1,-0.22667 1,-0.2373 1,-0.24791 1,-0.25852 1,-0.26913 1,-0.27971 1,-0.29031 1,-0.30088 1,-0.31145 1,-0.32202 1,-0.33257 1,-0.34311 1,-0.35364 1,-0.36417 1,-0.37469 1,-0.38518 1,-0.39568 1,-0.40617 1,-0.41663 1,-0.4271 1,-0.43754 1,-0.44797 1,-0.4584 1,-0.46881 1,-0.47921 1,-0.48959" stroke-linecap="round" stroke-linejoin="round" stroke-miterlimit="10" stroke-width="17" id="SvgjsPath1003" style="stroke:#2108f3;stroke-opacity:1"></path>
    </g>
    <path style="fill:none;stroke:#000000;stroke-width:20;stroke-linecap:round;stroke-linejoin:miter;stroke-dasharray:none;stroke-opacity:1" d="m 10,783.11073 c 469.18715,165.85152 1008.1878,170.70699 1525.3492,-13.9684" id="SvgjsPath1002" sodipodi:nodetypes="cc"></path>
    <circle style="fill:none;fill-opacity:1;stroke:#000000;stroke-width:20;stroke-linecap:round;stroke-linejoin:miter;stroke-dasharray:none;stroke-opacity:1" id="SvgjsCircle1001" cx="795.02399" cy="745.7464" r="145.27135"></circle>
    <path style="fill:none;fill-opacity:1;stroke:#000000;stroke-width:20;stroke-linecap:round;stroke-linejoin:miter;stroke-dasharray:none;stroke-opacity:1" d="M 317.30479,1285.9731 C 656.61286,823.73121 901.65847,1106.292 901.18387,1299.9415" id="SvgjsPath1000" sodipodi:nodetypes="cc"></path>
  </g>
</svg><style>@media (prefers-color-scheme: light) { :root { filter: none; } }
@media (prefers-color-scheme: dark) { :root { filter: none; } }
</style></svg>