<?xml version="1.0" encoding="UTF-8" standalone="no"?>
<!DOCTYPE svg PUBLIC "-//W3C//DTD SVG 1.1//EN"
 "http://www.w3.org/Graphics/SVG/1.1/DTD/svg11.dtd">
<!-- Generated by graphviz version 7.0.5 (20221223.1930)
 -->
<!-- Title: D Pages: 1 -->
<svg width="2130pt" height="1547pt"
 viewBox="0.00 0.00 2129.50 1547.00" xmlns="http://www.w3.org/2000/svg" xmlns:xlink="http://www.w3.org/1999/xlink">
<g id="graph0" class="graph" transform="scale(1 1) rotate(0) translate(4 1543)">
<title>D</title>
<polygon fill="white" stroke="none" points="-4,4 -4,-1543 2125.5,-1543 2125.5,4 -4,4"/>
<text text-anchor="start" x="916.75" y="-1521.6" font-family="Times,serif" font-weight="bold" font-size="18.00">6.2 AD: Lieferende LF an NB</text>
<text text-anchor="start" x="913.75" y="-1491.2" font-family="Times,serif" font-weight="bold" font-size="16.00">6.2.1 E_0401_Abmeldung prüfen</text>
<!-- Start -->
<g id="node1" class="node">
<title>Start</title>
<polygon fill="#7a8da1" stroke="black" points="1424,-1441 1263,-1441 1263,-1397 1424,-1397 1424,-1441"/>
<text text-anchor="start" x="1315" y="-1421.8" font-family="Times,serif" font-weight="bold" font-size="14.00">E_0401</text>
<text text-anchor="start" x="1277" y="-1409.4" font-family="Times,serif" font-weight="bold" text-decoration="underline" font-size="12.00">Prüfende Rolle:</text>
<text text-anchor="start" x="1383" y="-1409.4" font-family="Times,serif" font-weight="bold" font-size="12.00"> NB</text>
</g>
<!-- 1 -->
<g id="node2" class="node">
<title>1</title>
<path fill="#7aab8a" stroke="black" d="M1570.5,-1360C1570.5,-1360 1116.5,-1360 1116.5,-1360 1110.5,-1360 1104.5,-1354 1104.5,-1348 1104.5,-1348 1104.5,-1256 1104.5,-1256 1104.5,-1250 1110.5,-1244 1116.5,-1244 1116.5,-1244 1570.5,-1244 1570.5,-1244 1576.5,-1244 1582.5,-1250 1582.5,-1256 1582.5,-1256 1582.5,-1348 1582.5,-1348 1582.5,-1354 1576.5,-1360 1570.5,-1360"/>
<text text-anchor="start" x="1118.5" y="-1340.8" font-family="Times,serif" font-weight="bold" font-size="14.00">1: </text>
<text text-anchor="start" x="1138.5" y="-1340.8" font-family="Times,serif" font-size="14.00">Liegt ein Transaktionsgrund vor, der eine Abmeldung nur in</text>
<text text-anchor="start" x="1118.5" y="-1326.8" font-family="Times,serif" font-size="14.00">die Zukunft zulässt?</text>
<text text-anchor="start" x="1118.5" y="-1312.8" font-family="Times,serif" font-size="14.00">Das ist bei den folgenden Transaktionsgründen der Fall:</text>
<text text-anchor="start" x="1118.5" y="-1298.8" font-family="Times,serif" font-size="14.00"> Wechsel</text>
<text text-anchor="start" x="1118.5" y="-1284.8" font-family="Times,serif" font-size="14.00"> Ende der ESV ohne Folgelieferung</text>
<text text-anchor="start" x="1118.5" y="-1270.8" font-family="Times,serif" font-size="14.00"> Aufhebung einer zukünftigen Zuordnung wegen</text>
<text text-anchor="start" x="1118.5" y="-1256.8" font-family="Times,serif" font-size="14.00">aufgehobenem Vertragsverhältnis</text>
</g>
<!-- Start&#45;&gt;1 -->
<g id="edge1" class="edge">
<title>Start&#45;&gt;1</title>
<path fill="none" stroke="black" d="M1343.5,-1396.64C1343.5,-1389.25 1343.5,-1380.52 1343.5,-1371.42"/>
<polygon fill="black" stroke="black" points="1347,-1371.7 1343.5,-1361.7 1340,-1371.7 1347,-1371.7"/>
</g>
<!-- 2 -->
<g id="node3" class="node">
<title>2</title>
<path fill="#7aab8a" stroke="black" d="M1334.5,-1193C1334.5,-1193 888.5,-1193 888.5,-1193 882.5,-1193 876.5,-1187 876.5,-1181 876.5,-1181 876.5,-1075 876.5,-1075 876.5,-1069 882.5,-1063 888.5,-1063 888.5,-1063 1334.5,-1063 1334.5,-1063 1340.5,-1063 1346.5,-1069 1346.5,-1075 1346.5,-1075 1346.5,-1181 1346.5,-1181 1346.5,-1187 1340.5,-1193 1334.5,-1193"/>
<text text-anchor="start" x="890.5" y="-1173.8" font-family="Times,serif" font-weight="bold" font-size="14.00">2: </text>
<text text-anchor="start" x="910.5" y="-1173.8" font-family="Times,serif" font-size="14.00">Liegt ein Transaktionsgrund vor, welcher mitteilt, dass der</text>
<text text-anchor="start" x="890.5" y="-1159.8" font-family="Times,serif" font-size="14.00">Kunde vor Lieferbeginn ausgezogen ist, bzw. die</text>
<text text-anchor="start" x="890.5" y="-1145.8" font-family="Times,serif" font-size="14.00">Marktlokation vor Lieferbeginn stillgelegt wurde?</text>
<text text-anchor="start" x="890.5" y="-1131.8" font-family="Times,serif" font-size="14.00">Das ist bei den folgenden Transaktionsgründen der Fall:</text>
<text text-anchor="start" x="890.5" y="-1117.8" font-family="Times,serif" font-size="14.00"> Aufhebung einer zukünftigen Zuordnung wegen Auszug</text>
<text text-anchor="start" x="890.5" y="-1103.8" font-family="Times,serif" font-size="14.00">des Kunden</text>
<text text-anchor="start" x="890.5" y="-1089.8" font-family="Times,serif" font-size="14.00"> Aufhebung einer zukünftigen Zuordnung wegen</text>
<text text-anchor="start" x="890.5" y="-1075.8" font-family="Times,serif" font-size="14.00">Stilllegung</text>
</g>
<!-- 1&#45;&gt;2 -->
<g id="edge3" class="edge">
<title>1&#45;&gt;2</title>
<path fill="none" stroke="black" d="M1266.25,-1243.73C1247.47,-1229.81 1227.17,-1214.75 1207.63,-1200.27"/>
<polygon fill="black" stroke="black" points="1209.76,-1197.49 1199.64,-1194.34 1205.59,-1203.11 1209.76,-1197.49"/>
<text text-anchor="middle" x="1257.5" y="-1214.8" font-family="Times,serif" font-size="14.00">Nein</text>
</g>
<!-- 4 -->
<g id="node6" class="node">
<title>4</title>
<path fill="#7aab8a" stroke="black" d="M1776,-1151C1776,-1151 1377,-1151 1377,-1151 1371,-1151 1365,-1145 1365,-1139 1365,-1139 1365,-1117 1365,-1117 1365,-1111 1371,-1105 1377,-1105 1377,-1105 1776,-1105 1776,-1105 1782,-1105 1788,-1111 1788,-1117 1788,-1117 1788,-1139 1788,-1139 1788,-1145 1782,-1151 1776,-1151"/>
<text text-anchor="start" x="1379" y="-1131.8" font-family="Times,serif" font-weight="bold" font-size="14.00">4: </text>
<text text-anchor="start" x="1399" y="-1131.8" font-family="Times,serif" font-size="14.00">Liegt das Eingangsdatum mindestens 6 WT vor dem</text>
<text text-anchor="start" x="1379" y="-1117.8" font-family="Times,serif" font-size="14.00">Abmeldedatum?</text>
</g>
<!-- 1&#45;&gt;4 -->
<g id="edge2" class="edge">
<title>1&#45;&gt;4</title>
<path fill="none" stroke="black" d="M1421.09,-1243.73C1460,-1215 1505.47,-1181.44 1537.13,-1158.06"/>
<polygon fill="black" stroke="black" points="1538.9,-1161.11 1544.86,-1152.35 1534.74,-1155.48 1538.9,-1161.11"/>
<text text-anchor="middle" x="1466.5" y="-1214.8" font-family="Times,serif" font-size="14.00">Ja</text>
</g>
<!-- 3 -->
<g id="node4" class="node">
<title>3</title>
<path fill="#7aab8a" stroke="black" d="M1336,-998C1336,-998 899,-998 899,-998 893,-998 887,-992 887,-986 887,-986 887,-964 887,-964 887,-958 893,-952 899,-952 899,-952 1336,-952 1336,-952 1342,-952 1348,-958 1348,-964 1348,-964 1348,-986 1348,-986 1348,-992 1342,-998 1336,-998"/>
<text text-anchor="start" x="901" y="-978.8" font-family="Times,serif" font-weight="bold" font-size="14.00">3: </text>
<text text-anchor="start" x="921" y="-978.8" font-family="Times,serif" font-size="14.00">Liegt das Abmeldedatum mindestens einen Tag nach dem</text>
<text text-anchor="start" x="901" y="-964.8" font-family="Times,serif" font-size="14.00">Eingangsdatum der Abmeldung?</text>
</g>
<!-- 2&#45;&gt;3 -->
<g id="edge4" class="edge">
<title>2&#45;&gt;3</title>
<path fill="none" stroke="black" d="M1114.06,-1062.52C1114.79,-1044.26 1115.55,-1025.11 1116.17,-1009.48"/>
<polygon fill="black" stroke="black" points="1119.65,-1009.94 1116.55,-999.8 1112.66,-1009.66 1119.65,-1009.94"/>
<text text-anchor="middle" x="1121.5" y="-1033.8" font-family="Times,serif" font-size="14.00">Ja</text>
</g>
<!-- 6 -->
<g id="node9" class="node">
<title>6</title>
<path fill="#7aab8a" stroke="black" d="M857,-1005C857,-1005 436,-1005 436,-1005 430,-1005 424,-999 424,-993 424,-993 424,-957 424,-957 424,-951 430,-945 436,-945 436,-945 857,-945 857,-945 863,-945 869,-951 869,-957 869,-957 869,-993 869,-993 869,-999 863,-1005 857,-1005"/>
<text text-anchor="start" x="438" y="-985.8" font-family="Times,serif" font-weight="bold" font-size="14.00">6: </text>
<text text-anchor="start" x="458" y="-985.8" font-family="Times,serif" font-size="14.00">Handelt es sich um eine Marktlokation, deren Mess&#45;</text>
<text text-anchor="start" x="438" y="-971.8" font-family="Times,serif" font-size="14.00">lokationen vollständig mit iMS ausgestattet sind oder/und</text>
<text text-anchor="start" x="438" y="-957.8" font-family="Times,serif" font-size="14.00">deren Prognosegrundlage auf Basis von Werten erfolgt?</text>
</g>
<!-- 2&#45;&gt;6 -->
<g id="edge5" class="edge">
<title>2&#45;&gt;6</title>
<path fill="none" stroke="black" d="M912.95,-1062.52C856.04,-1044.04 796.35,-1024.66 747.93,-1008.94"/>
<polygon fill="black" stroke="black" points="749.17,-1005.66 738.58,-1005.9 747.01,-1012.32 749.17,-1005.66"/>
<text text-anchor="middle" x="867.5" y="-1033.8" font-family="Times,serif" font-size="14.00">Nein</text>
</g>
<!-- A01 -->
<g id="node5" class="node">
<title>A01</title>
<polygon fill="#cca9ab" stroke="black" points="1259,-887 954,-887 954,-801 1259,-801 1259,-887"/>
<text text-anchor="start" x="1091" y="-870.8" font-family="Times,serif" font-weight="bold" font-size="14.00">A01</text>
<text text-anchor="start" x="966" y="-858.4" font-family="Times,serif" text-decoration="underline" font-size="12.00">Hinweis:</text>
<text text-anchor="start" x="966" y="-846.4" font-family="Times,serif" font-size="12.00">Cluster: Ablehnung</text>
<text text-anchor="start" x="966" y="-834.4" font-family="Times,serif" font-size="12.00">Fristüberschreitung bei Aufhebung einer zu&#45;</text>
<text text-anchor="start" x="966" y="-822.4" font-family="Times,serif" font-size="12.00">künftigen Zuordnung wegen Auszug oder Still&#45;</text>
<text text-anchor="start" x="966" y="-810.4" font-family="Times,serif" font-size="12.00">legung.</text>
</g>
<!-- 3&#45;&gt;A01 -->
<g id="edge6" class="edge">
<title>3&#45;&gt;A01</title>
<path fill="none" stroke="black" d="M1115.58,-951.53C1114.34,-936.88 1112.65,-917.12 1111.07,-898.59"/>
<polygon fill="black" stroke="black" points="1114.57,-898.44 1110.23,-888.78 1107.6,-899.04 1114.57,-898.44"/>
<text text-anchor="middle" x="1129.5" y="-908.8" font-family="Times,serif" font-size="14.00">Nein</text>
</g>
<!-- 9 -->
<g id="node14" class="node">
<title>9</title>
<path fill="#7aab8a" stroke="black" d="M1813,-874C1813,-874 1360,-874 1360,-874 1354,-874 1348,-868 1348,-862 1348,-862 1348,-826 1348,-826 1348,-820 1354,-814 1360,-814 1360,-814 1813,-814 1813,-814 1819,-814 1825,-820 1825,-826 1825,-826 1825,-862 1825,-862 1825,-868 1819,-874 1813,-874"/>
<text text-anchor="start" x="1362" y="-854.8" font-family="Times,serif" font-weight="bold" font-size="14.00">9: </text>
<text text-anchor="start" x="1382" y="-854.8" font-family="Times,serif" font-size="14.00">Erfolgt die Aufhebung einer zukünftigen Zuordnung zu dem</text>
<text text-anchor="start" x="1362" y="-840.8" font-family="Times,serif" font-size="14.00">gleichen Datum (Zeitpunkt), welcher dem Lieferanten im</text>
<text text-anchor="start" x="1362" y="-826.8" font-family="Times,serif" font-size="14.00">Lieferbeginn bestätigt wurde?</text>
</g>
<!-- 3&#45;&gt;9 -->
<g id="edge7" class="edge">
<title>3&#45;&gt;9</title>
<path fill="none" stroke="black" d="M1199.19,-951.53C1273.62,-931.06 1384.41,-900.59 1468.45,-877.47"/>
<polygon fill="black" stroke="black" points="1469.17,-880.9 1477.88,-874.88 1467.31,-874.15 1469.17,-880.9"/>
<text text-anchor="middle" x="1372.5" y="-908.8" font-family="Times,serif" font-size="14.00">Ja</text>
</g>
<!-- A02 -->
<g id="node7" class="node">
<title>A02</title>
<polygon fill="#cca9ab" stroke="black" points="2121.5,-1012 1799.5,-1012 1799.5,-938 2121.5,-938 2121.5,-1012"/>
<text text-anchor="start" x="1945" y="-995.8" font-family="Times,serif" font-weight="bold" font-size="14.00">A02</text>
<text text-anchor="start" x="1811.5" y="-983.4" font-family="Times,serif" text-decoration="underline" font-size="12.00">Hinweis:</text>
<text text-anchor="start" x="1811.5" y="-971.4" font-family="Times,serif" font-size="12.00">Cluster: Ablehnung</text>
<text text-anchor="start" x="1811.5" y="-959.4" font-family="Times,serif" font-size="12.00">Fristüberschreitung bei Transaktionsgründen für</text>
<text text-anchor="start" x="1811.5" y="-947.4" font-family="Times,serif" font-size="12.00">eine Abmeldung in der Zukunft.</text>
</g>
<!-- 4&#45;&gt;A02 -->
<g id="edge8" class="edge">
<title>4&#45;&gt;A02</title>
<path fill="none" stroke="black" d="M1633.57,-1104.56C1692.42,-1081.42 1785.45,-1044.83 1857.25,-1016.6"/>
<polygon fill="black" stroke="black" points="1858.25,-1019.97 1866.28,-1013.05 1855.69,-1013.45 1858.25,-1019.97"/>
<text text-anchor="middle" x="1830.5" y="-1033.8" font-family="Times,serif" font-size="14.00">Nein</text>
</g>
<!-- 5 -->
<g id="node8" class="node">
<title>5</title>
<path fill="#7aab8a" stroke="black" d="M1769.5,-1012C1769.5,-1012 1379.5,-1012 1379.5,-1012 1373.5,-1012 1367.5,-1006 1367.5,-1000 1367.5,-1000 1367.5,-950 1367.5,-950 1367.5,-944 1373.5,-938 1379.5,-938 1379.5,-938 1769.5,-938 1769.5,-938 1775.5,-938 1781.5,-944 1781.5,-950 1781.5,-950 1781.5,-1000 1781.5,-1000 1781.5,-1006 1775.5,-1012 1769.5,-1012"/>
<text text-anchor="start" x="1381.5" y="-992.8" font-family="Times,serif" font-weight="bold" font-size="14.00">5: </text>
<text text-anchor="start" x="1401.5" y="-992.8" font-family="Times,serif" font-size="14.00">Liegt der Transaktionsgrund</text>
<text text-anchor="start" x="1381.5" y="-978.8" font-family="Times,serif" font-size="14.00">• Aufhebung einer zukünftigen Zuordnung wegen auf&#45;</text>
<text text-anchor="start" x="1381.5" y="-964.8" font-family="Times,serif" font-size="14.00">gehobenem Vertragsverhältnis</text>
<text text-anchor="start" x="1381.5" y="-950.8" font-family="Times,serif" font-size="14.00">vor?</text>
</g>
<!-- 4&#45;&gt;5 -->
<g id="edge9" class="edge">
<title>4&#45;&gt;5</title>
<path fill="none" stroke="black" d="M1576.2,-1104.72C1575.92,-1083.47 1575.49,-1050.78 1575.13,-1023.66"/>
<polygon fill="black" stroke="black" points="1578.63,-1023.9 1575,-1013.95 1571.64,-1023.99 1578.63,-1023.9"/>
<text text-anchor="middle" x="1581.5" y="-1033.8" font-family="Times,serif" font-size="14.00">Ja</text>
</g>
<!-- 5&#45;&gt;9 -->
<g id="edge10" class="edge">
<title>5&#45;&gt;9</title>
<path fill="none" stroke="black" d="M1577.87,-937.72C1579.38,-921.5 1581.17,-902.3 1582.72,-885.6"/>
<polygon fill="black" stroke="black" points="1586.17,-886.28 1583.62,-876 1579.2,-885.64 1586.17,-886.28"/>
<text text-anchor="middle" x="1587.5" y="-908.8" font-family="Times,serif" font-size="14.00">Ja</text>
</g>
<!-- 10 -->
<g id="node16" class="node">
<title>10</title>
<path fill="#7aab8a" stroke="black" d="M1365.5,-750C1365.5,-750 921.5,-750 921.5,-750 915.5,-750 909.5,-744 909.5,-738 909.5,-738 909.5,-590 909.5,-590 909.5,-584 915.5,-578 921.5,-578 921.5,-578 1365.5,-578 1365.5,-578 1371.5,-578 1377.5,-584 1377.5,-590 1377.5,-590 1377.5,-738 1377.5,-738 1377.5,-744 1371.5,-750 1365.5,-750"/>
<text text-anchor="start" x="923.5" y="-730.8" font-family="Times,serif" font-weight="bold" font-size="14.00">10: </text>
<text text-anchor="start" x="953.5" y="-730.8" font-family="Times,serif" font-size="14.00">Wurde die Zuordnung des anfragenden Lieferanten zur</text>
<text text-anchor="start" x="923.5" y="-716.8" font-family="Times,serif" font-size="14.00">Marktlokation zum identischen Abmeldedatum bereits durch</text>
<text text-anchor="start" x="923.5" y="-702.8" font-family="Times,serif" font-size="14.00">eine Bestätigung in den folgenden Prozessschritten beendet?</text>
<text text-anchor="start" x="923.5" y="-688.8" font-family="Times,serif" font-size="14.00">Fall:</text>
<text text-anchor="start" x="923.5" y="-674.8" font-family="Times,serif" font-size="14.00"> SD: Lieferende von LF an NB, Prozessschritt 2 &quot;Antwort</text>
<text text-anchor="start" x="923.5" y="-660.8" font-family="Times,serif" font-size="14.00">auf Abmeldung&quot;</text>
<text text-anchor="start" x="923.5" y="-646.8" font-family="Times,serif" font-size="14.00"> SD: Lieferende von NB an LF, Prozessschritt 2 &quot;Antwort</text>
<text text-anchor="start" x="923.5" y="-632.8" font-family="Times,serif" font-size="14.00">auf Abmeldung&quot;</text>
<text text-anchor="start" x="923.5" y="-618.8" font-family="Times,serif" font-size="14.00"> SD: Lieferbeginn, Prozessschritt 4 &quot;Beantwortung der</text>
<text text-anchor="start" x="923.5" y="-604.8" font-family="Times,serif" font-size="14.00">Abmeldeanfrage&quot; oder die Bestätigung erfolgt durch</text>
<text text-anchor="start" x="923.5" y="-590.8" font-family="Times,serif" font-size="14.00">die Fristverstreichung</text>
</g>
<!-- 5&#45;&gt;10 -->
<g id="edge11" class="edge">
<title>5&#45;&gt;10</title>
<path fill="none" stroke="black" d="M1367.25,-940.92C1346.22,-934.83 1329.08,-927.86 1319.5,-920 1275.02,-883.49 1299.75,-849.32 1268.5,-801 1259.2,-786.62 1248.34,-772.31 1236.97,-758.69"/>
<polygon fill="black" stroke="black" points="1239.96,-756.8 1230.82,-751.45 1234.62,-761.33 1239.96,-756.8"/>
<text text-anchor="middle" x="1310.5" y="-840.3" font-family="Times,serif" font-size="14.00">Nein</text>
</g>
<!-- 7 -->
<g id="node10" class="node">
<title>7</title>
<path fill="#7aab8a" stroke="black" d="M449,-867C449,-867 12,-867 12,-867 6,-867 0,-861 0,-855 0,-855 0,-833 0,-833 0,-827 6,-821 12,-821 12,-821 449,-821 449,-821 455,-821 461,-827 461,-833 461,-833 461,-855 461,-855 461,-861 455,-867 449,-867"/>
<text text-anchor="start" x="14" y="-847.8" font-family="Times,serif" font-weight="bold" font-size="14.00">7: </text>
<text text-anchor="start" x="34" y="-847.8" font-family="Times,serif" font-size="14.00">Liegt das Abmeldedatum mindestens einen Tag nach dem</text>
<text text-anchor="start" x="14" y="-833.8" font-family="Times,serif" font-size="14.00">Eingangsdatum der Abmeldung?</text>
</g>
<!-- 6&#45;&gt;7 -->
<g id="edge12" class="edge">
<title>6&#45;&gt;7</title>
<path fill="none" stroke="black" d="M551.58,-944.57C479.88,-922.33 382.42,-892.11 313.74,-870.81"/>
<polygon fill="black" stroke="black" points="315.01,-867.54 304.42,-867.92 312.94,-874.23 315.01,-867.54"/>
<text text-anchor="middle" x="470.5" y="-908.8" font-family="Times,serif" font-size="14.00">Ja</text>
</g>
<!-- 8 -->
<g id="node12" class="node">
<title>8</title>
<path fill="#7aab8a" stroke="black" d="M924,-867C924,-867 491,-867 491,-867 485,-867 479,-861 479,-855 479,-855 479,-833 479,-833 479,-827 485,-821 491,-821 491,-821 924,-821 924,-821 930,-821 936,-827 936,-833 936,-833 936,-855 936,-855 936,-861 930,-867 924,-867"/>
<text text-anchor="start" x="493" y="-847.8" font-family="Times,serif" font-weight="bold" font-size="14.00">8: </text>
<text text-anchor="start" x="513" y="-847.8" font-family="Times,serif" font-size="14.00">Liegt das Eingangsdatum der Abmeldung mehr als sechs</text>
<text text-anchor="start" x="493" y="-833.8" font-family="Times,serif" font-size="14.00">Wochen nach dem Abmeldedatum der Abmeldung?</text>
</g>
<!-- 6&#45;&gt;8 -->
<g id="edge13" class="edge">
<title>6&#45;&gt;8</title>
<path fill="none" stroke="black" d="M660.34,-944.73C669.8,-924.72 682.34,-898.2 692.12,-877.53"/>
<polygon fill="black" stroke="black" points="695.18,-879.23 696.3,-868.7 688.86,-876.24 695.18,-879.23"/>
<text text-anchor="middle" x="696.5" y="-908.8" font-family="Times,serif" font-size="14.00">Nein</text>
</g>
<!-- A03 -->
<g id="node11" class="node">
<title>A03</title>
<polygon fill="#cca9ab" stroke="black" points="382,-701 79,-701 79,-627 382,-627 382,-701"/>
<text text-anchor="start" x="215" y="-684.8" font-family="Times,serif" font-weight="bold" font-size="14.00">A03</text>
<text text-anchor="start" x="91" y="-672.4" font-family="Times,serif" text-decoration="underline" font-size="12.00">Hinweis:</text>
<text text-anchor="start" x="91" y="-660.4" font-family="Times,serif" font-size="12.00">Cluster: Ablehnung</text>
<text text-anchor="start" x="91" y="-648.4" font-family="Times,serif" font-size="12.00">Eingangsfrist bei iMS/kME mit RLM nicht ein&#45;</text>
<text text-anchor="start" x="91" y="-636.4" font-family="Times,serif" font-size="12.00">gehalten.</text>
</g>
<!-- 7&#45;&gt;A03 -->
<g id="edge14" class="edge">
<title>7&#45;&gt;A03</title>
<path fill="none" stroke="black" d="M230.5,-820.82C230.5,-793.94 230.5,-747.9 230.5,-712.82"/>
<polygon fill="black" stroke="black" points="234,-712.9 230.5,-702.9 227,-712.9 234,-712.9"/>
<text text-anchor="middle" x="247.5" y="-771.8" font-family="Times,serif" font-size="14.00">Nein</text>
</g>
<!-- 7&#45;&gt;10 -->
<g id="edge15" class="edge">
<title>7&#45;&gt;10</title>
<path fill="none" stroke="black" d="M343.49,-820.54C383.19,-813.34 428.19,-805.96 469.5,-801 591.55,-786.34 624.21,-803.02 745.5,-783 801.34,-773.78 814.12,-765.69 868.5,-750 878.28,-747.18 888.25,-744.26 898.32,-741.29"/>
<polygon fill="black" stroke="black" points="899.22,-744.68 907.82,-738.48 897.23,-737.96 899.22,-744.68"/>
<text text-anchor="middle" x="816.5" y="-771.8" font-family="Times,serif" font-size="14.00">Ja</text>
</g>
<!-- A04 -->
<g id="node13" class="node">
<title>A04</title>
<polygon fill="#cca9ab" stroke="black" points="859.5,-701 555.5,-701 555.5,-627 859.5,-627 859.5,-701"/>
<text text-anchor="start" x="692" y="-684.8" font-family="Times,serif" font-weight="bold" font-size="14.00">A04</text>
<text text-anchor="start" x="567.5" y="-672.4" font-family="Times,serif" text-decoration="underline" font-size="12.00">Hinweis:</text>
<text text-anchor="start" x="567.5" y="-660.4" font-family="Times,serif" font-size="12.00">Cluster: Ablehnung</text>
<text text-anchor="start" x="567.5" y="-648.4" font-family="Times,serif" font-size="12.00">Fristüberschreitung bei kME ohne RLM/mME/</text>
<text text-anchor="start" x="567.5" y="-636.4" font-family="Times,serif" font-size="12.00">Pauschalanlage.</text>
</g>
<!-- 8&#45;&gt;A04 -->
<g id="edge16" class="edge">
<title>8&#45;&gt;A04</title>
<path fill="none" stroke="black" d="M707.5,-820.82C707.5,-793.94 707.5,-747.9 707.5,-712.82"/>
<polygon fill="black" stroke="black" points="711,-712.9 707.5,-702.9 704,-712.9 711,-712.9"/>
<text text-anchor="middle" x="724.5" y="-771.8" font-family="Times,serif" font-size="14.00">Nein</text>
</g>
<!-- 8&#45;&gt;10 -->
<g id="edge17" class="edge">
<title>8&#45;&gt;10</title>
<path fill="none" stroke="black" d="M848.35,-820.52C888.16,-811.55 930.86,-799.34 968.5,-783 985.78,-775.5 1003.18,-766.25 1019.95,-756.26"/>
<polygon fill="black" stroke="black" points="1021.73,-759.27 1028.45,-751.09 1018.09,-753.29 1021.73,-759.27"/>
<text text-anchor="middle" x="1000.5" y="-771.8" font-family="Times,serif" font-size="14.00">Ja</text>
</g>
<!-- A05 -->
<g id="node15" class="node">
<title>A05</title>
<polygon fill="#cca9ab" stroke="black" points="1746.5,-707 1426.5,-707 1426.5,-621 1746.5,-621 1746.5,-707"/>
<text text-anchor="start" x="1571" y="-690.8" font-family="Times,serif" font-weight="bold" font-size="14.00">A05</text>
<text text-anchor="start" x="1438.5" y="-678.4" font-family="Times,serif" text-decoration="underline" font-size="12.00">Hinweis:</text>
<text text-anchor="start" x="1438.5" y="-666.4" font-family="Times,serif" font-size="12.00">Cluster: Ablehnung</text>
<text text-anchor="start" x="1438.5" y="-654.4" font-family="Times,serif" font-size="12.00">Die Aufhebung einer zukünftigen Zuordnung</text>
<text text-anchor="start" x="1438.5" y="-642.4" font-family="Times,serif" font-size="12.00">muss zum Datum (Zeitpunkt) angegeben werden,</text>
<text text-anchor="start" x="1438.5" y="-630.4" font-family="Times,serif" font-size="12.00">wie im Lieferbeginn bestätigt.</text>
</g>
<!-- 9&#45;&gt;A05 -->
<g id="edge18" class="edge">
<title>9&#45;&gt;A05</title>
<path fill="none" stroke="black" d="M1586.5,-813.61C1586.5,-787.84 1586.5,-749.73 1586.5,-718.56"/>
<polygon fill="black" stroke="black" points="1590,-718.94 1586.5,-708.94 1583,-718.94 1590,-718.94"/>
<text text-anchor="middle" x="1603.5" y="-771.8" font-family="Times,serif" font-size="14.00">Nein</text>
</g>
<!-- 9&#45;&gt;10 -->
<g id="edge19" class="edge">
<title>9&#45;&gt;10</title>
<path fill="none" stroke="black" d="M1513.35,-813.61C1472.68,-797.27 1419.67,-775.97 1366.55,-754.62"/>
<polygon fill="black" stroke="black" points="1367.91,-751.4 1357.33,-750.92 1365.3,-757.89 1367.91,-751.4"/>
<text text-anchor="middle" x="1437.5" y="-771.8" font-family="Times,serif" font-size="14.00">Ja</text>
</g>
<!-- A06 -->
<g id="node17" class="node">
<title>A06</title>
<polygon fill="#cca9ab" stroke="black" points="1156,-417 963,-417 963,-355 1156,-355 1156,-417"/>
<text text-anchor="start" x="1044" y="-400.8" font-family="Times,serif" font-weight="bold" font-size="14.00">A06</text>
<text text-anchor="start" x="975" y="-388.4" font-family="Times,serif" text-decoration="underline" font-size="12.00">Hinweis:</text>
<text text-anchor="start" x="975" y="-376.4" font-family="Times,serif" font-size="12.00">Cluster: Zustimmung</text>
<text text-anchor="start" x="975" y="-364.4" font-family="Times,serif" font-size="12.00">Bestätigung der Abmeldung</text>
</g>
<!-- 10&#45;&gt;A06 -->
<g id="edge21" class="edge">
<title>10&#45;&gt;A06</title>
<path fill="none" stroke="black" d="M1089.13,-577.69C1080.89,-561.4 1073.49,-544.08 1068.5,-527 1059.15,-494.98 1057.23,-457.16 1057.46,-428.9"/>
<polygon fill="black" stroke="black" points="1060.96,-429 1057.65,-418.94 1053.96,-428.87 1060.96,-429"/>
<text text-anchor="middle" x="1085.5" y="-500.3" font-family="Times,serif" font-size="14.00">Nein</text>
</g>
<!-- 11 -->
<g id="node18" class="node">
<title>11</title>
<path fill="#7aab8a" stroke="black" d="M1603.5,-527C1603.5,-527 1123.5,-527 1123.5,-527 1117.5,-527 1111.5,-521 1111.5,-515 1111.5,-515 1111.5,-493 1111.5,-493 1111.5,-487 1117.5,-481 1123.5,-481 1123.5,-481 1603.5,-481 1603.5,-481 1609.5,-481 1615.5,-487 1615.5,-493 1615.5,-493 1615.5,-515 1615.5,-515 1615.5,-521 1609.5,-527 1603.5,-527"/>
<text text-anchor="start" x="1125.5" y="-507.8" font-family="Times,serif" font-weight="bold" font-size="14.00">11: </text>
<text text-anchor="start" x="1155.5" y="-507.8" font-family="Times,serif" font-size="14.00">Ist der anfragende LF am Folgetag des Abmeldungsdatum der</text>
<text text-anchor="start" x="1125.5" y="-493.8" font-family="Times,serif" font-size="14.00">Marktlokation noch zugeordnet?</text>
</g>
<!-- 10&#45;&gt;11 -->
<g id="edge20" class="edge">
<title>10&#45;&gt;11</title>
<path fill="none" stroke="black" d="M1262.51,-577.53C1284.38,-561.82 1305.77,-546.46 1323.2,-533.95"/>
<polygon fill="black" stroke="black" points="1325.14,-536.86 1331.22,-528.19 1321.05,-531.18 1325.14,-536.86"/>
<text text-anchor="middle" x="1310.5" y="-548.8" font-family="Times,serif" font-size="14.00">Ja</text>
</g>
<!-- 11&#45;&gt;A06 -->
<g id="edge23" class="edge">
<title>11&#45;&gt;A06</title>
<path fill="none" stroke="black" d="M1301.33,-480.66C1262.22,-466.46 1210.77,-447.52 1165.5,-430 1158.59,-427.33 1151.45,-424.52 1144.29,-421.68"/>
<polygon fill="black" stroke="black" points="1145.79,-418.51 1135.2,-418.05 1143.2,-425.01 1145.79,-418.51"/>
<text text-anchor="middle" x="1258.5" y="-451.8" font-family="Times,serif" font-size="14.00">Ja</text>
</g>
<!-- 12 -->
<g id="node19" class="node">
<title>12</title>
<path fill="#7aab8a" stroke="black" d="M1639,-430C1639,-430 1186,-430 1186,-430 1180,-430 1174,-424 1174,-418 1174,-418 1174,-354 1174,-354 1174,-348 1180,-342 1186,-342 1186,-342 1639,-342 1639,-342 1645,-342 1651,-348 1651,-354 1651,-354 1651,-418 1651,-418 1651,-424 1645,-430 1639,-430"/>
<text text-anchor="start" x="1188" y="-410.8" font-family="Times,serif" font-weight="bold" font-size="14.00">12: </text>
<text text-anchor="start" x="1218" y="-410.8" font-family="Times,serif" font-size="14.00">Liegt ein Transaktionsgrund vor, aus welchem hervorgeht,</text>
<text text-anchor="start" x="1188" y="-396.8" font-family="Times,serif" font-size="14.00">dass der Anschlussnutzer ausgezogen ist?</text>
<text text-anchor="start" x="1188" y="-382.8" font-family="Times,serif" font-size="14.00">Das ist bei den folgenden Transaktionsgründen der Fall:</text>
<text text-anchor="start" x="1188" y="-368.8" font-family="Times,serif" font-size="14.00"> Ein&#45;/Auszug (Umzug)</text>
<text text-anchor="start" x="1188" y="-354.8" font-family="Times,serif" font-size="14.00"> Auszug wegen Stilllegung</text>
</g>
<!-- 11&#45;&gt;12 -->
<g id="edge22" class="edge">
<title>11&#45;&gt;12</title>
<path fill="none" stroke="black" d="M1372.95,-480.63C1377.73,-469.3 1383.77,-455.01 1389.68,-441.02"/>
<polygon fill="black" stroke="black" points="1392.89,-442.41 1393.56,-431.84 1386.45,-439.69 1392.89,-442.41"/>
<text text-anchor="middle" x="1403.5" y="-451.8" font-family="Times,serif" font-size="14.00">Nein</text>
</g>
<!-- A07 -->
<g id="node20" class="node">
<title>A07</title>
<polygon fill="#cca9ab" stroke="black" points="1449,-263 1150,-263 1150,-189 1449,-189 1449,-263"/>
<text text-anchor="start" x="1284" y="-246.8" font-family="Times,serif" font-weight="bold" font-size="14.00">A07</text>
<text text-anchor="start" x="1162" y="-234.4" font-family="Times,serif" text-decoration="underline" font-size="12.00">Hinweis:</text>
<text text-anchor="start" x="1162" y="-222.4" font-family="Times,serif" font-size="12.00">Cluster: Ablehnung</text>
<text text-anchor="start" x="1162" y="-210.4" font-family="Times,serif" font-size="12.00">Lieferende zum Abmeldedatum wurde bereits</text>
<text text-anchor="start" x="1162" y="-198.4" font-family="Times,serif" font-size="12.00">bestätigt</text>
</g>
<!-- 12&#45;&gt;A07 -->
<g id="edge24" class="edge">
<title>12&#45;&gt;A07</title>
<path fill="none" stroke="black" d="M1381.62,-341.83C1366.31,-320.42 1347.81,-294.55 1332.25,-272.8"/>
<polygon fill="black" stroke="black" points="1335.1,-270.76 1326.44,-264.67 1329.41,-274.84 1335.1,-270.76"/>
<text text-anchor="middle" x="1382.5" y="-312.8" font-family="Times,serif" font-size="14.00">Nein</text>
</g>
<!-- 13 -->
<g id="node21" class="node">
<title>13</title>
<path fill="#7aab8a" stroke="black" d="M1912,-291C1912,-291 1479,-291 1479,-291 1473,-291 1467,-285 1467,-279 1467,-279 1467,-173 1467,-173 1467,-167 1473,-161 1479,-161 1479,-161 1912,-161 1912,-161 1918,-161 1924,-167 1924,-173 1924,-173 1924,-279 1924,-279 1924,-285 1918,-291 1912,-291"/>
<text text-anchor="start" x="1481" y="-271.8" font-family="Times,serif" font-weight="bold" font-size="14.00">13: </text>
<text text-anchor="start" x="1511" y="-271.8" font-family="Times,serif" font-size="14.00">Liegt in der bereits bestätigten Abmeldung ein</text>
<text text-anchor="start" x="1481" y="-257.8" font-family="Times,serif" font-size="14.00">Transaktionsgrund vor, aus welchem nicht hervorgeht, dass</text>
<text text-anchor="start" x="1481" y="-243.8" font-family="Times,serif" font-size="14.00">der Anschlussnutzer ausgezogen ist?</text>
<text text-anchor="start" x="1481" y="-229.8" font-family="Times,serif" font-size="14.00">Das ist bei den folgenden Transaktionsgründen der Fall:</text>
<text text-anchor="start" x="1481" y="-215.8" font-family="Times,serif" font-size="14.00"> Ein&#45;/Auszug (Umzug)</text>
<text text-anchor="start" x="1481" y="-201.8" font-family="Times,serif" font-size="14.00"> Auszug wegen Stilllegung</text>
<text text-anchor="start" x="1481" y="-187.8" font-family="Times,serif" font-size="14.00"> Aufhebung einer zukünftigen Zuordnung wegen</text>
<text text-anchor="start" x="1481" y="-173.8" font-family="Times,serif" font-size="14.00">Stilllegung</text>
</g>
<!-- 12&#45;&gt;13 -->
<g id="edge25" class="edge">
<title>12&#45;&gt;13</title>
<path fill="none" stroke="black" d="M1490.21,-341.62C1514.91,-327.83 1542.89,-312.2 1570.07,-297.03"/>
<polygon fill="black" stroke="black" points="1571.69,-300.13 1578.72,-292.2 1568.28,-294.02 1571.69,-300.13"/>
<text text-anchor="middle" x="1552.5" y="-312.8" font-family="Times,serif" font-size="14.00">Ja</text>
</g>
<!-- A08 -->
<g id="node22" class="node">
<title>A08</title>
<polygon fill="#cca9ab" stroke="black" points="1674,-92 1395,-92 1395,-18 1674,-18 1674,-92"/>
<text text-anchor="start" x="1519" y="-75.8" font-family="Times,serif" font-weight="bold" font-size="14.00">A08</text>
<text text-anchor="start" x="1407" y="-63.4" font-family="Times,serif" text-decoration="underline" font-size="12.00">Hinweis:</text>
<text text-anchor="start" x="1407" y="-51.4" font-family="Times,serif" font-size="12.00">Cluster: Ablehnung</text>
<text text-anchor="start" x="1407" y="-39.4" font-family="Times,serif" font-size="12.00">Lieferende zum Abmeldedatum wurde aus</text>
<text text-anchor="start" x="1407" y="-27.4" font-family="Times,serif" font-size="12.00">gleichem Grund bereits bestätigt.</text>
</g>
<!-- 13&#45;&gt;A08 -->
<g id="edge26" class="edge">
<title>13&#45;&gt;A08</title>
<path fill="none" stroke="black" d="M1634.17,-160.63C1615.06,-140.57 1594.42,-118.9 1576.9,-100.51"/>
<polygon fill="black" stroke="black" points="1579.57,-98.24 1570.14,-93.41 1574.5,-103.06 1579.57,-98.24"/>
<text text-anchor="middle" x="1631.5" y="-131.8" font-family="Times,serif" font-size="14.00">Nein</text>
</g>
<!-- A09 -->
<g id="node23" class="node">
<title>A09</title>
<polygon fill="#cca9ab" stroke="black" points="2020.5,-110 1692.5,-110 1692.5,0 2020.5,0 2020.5,-110"/>
<text text-anchor="start" x="1841" y="-93.8" font-family="Times,serif" font-weight="bold" font-size="14.00">A09</text>
<text text-anchor="start" x="1704.5" y="-81.4" font-family="Times,serif" text-decoration="underline" font-size="12.00">Hinweis:</text>
<text text-anchor="start" x="1704.5" y="-69.4" font-family="Times,serif" font-size="12.00">Cluster: Zustimmung</text>
<text text-anchor="start" x="1704.5" y="-57.4" font-family="Times,serif" font-size="12.00">Erneute Bestätigung der Abmeldung aufgrund der</text>
<text text-anchor="start" x="1704.5" y="-45.4" font-family="Times,serif" font-size="12.00">Information, dass der Anschlussnutzer nicht mehr</text>
<text text-anchor="start" x="1704.5" y="-33.4" font-family="Times,serif" font-size="12.00">an der Marktlokation vorhanden ist.</text>
<text text-anchor="start" x="1704.5" y="-21.4" font-family="Times,serif" font-size="12.00">Hinweis: Das bisher bestätigte Bilanzierungsende</text>
<text text-anchor="start" x="1704.5" y="-9.4" font-family="Times,serif" font-size="12.00">bleibt unverändert bestehen.</text>
</g>
<!-- 13&#45;&gt;A09 -->
<g id="edge27" class="edge">
<title>13&#45;&gt;A09</title>
<path fill="none" stroke="black" d="M1756.83,-160.63C1770.05,-146.75 1784,-132.1 1797.15,-118.3"/>
<polygon fill="black" stroke="black" points="1799.38,-121.04 1803.74,-111.38 1794.31,-116.21 1799.38,-121.04"/>
<text text-anchor="middle" x="1792.5" y="-131.8" font-family="Times,serif" font-size="14.00">Ja</text>
</g>
</g>
</svg>
