<?xml version="1.0" encoding="UTF-8" standalone="no"?>
<!-- Created with Inkscape (http://www.inkscape.org/) -->

<svg
   width="275.16666mm"
   height="105.83333mm"
   viewBox="0 0 275.16666 105.83332"
   version="1.1"
   id="svg1116"
   inkscape:version="1.1.2 (0a00cf5339, 2022-02-04)"
   sodipodi:docname="logo-name.svg"
   xmlns:inkscape="http://www.inkscape.org/namespaces/inkscape"
   xmlns:sodipodi="http://sodipodi.sourceforge.net/DTD/sodipodi-0.dtd"
   xmlns="http://www.w3.org/2000/svg"
   xmlns:svg="http://www.w3.org/2000/svg"
   xmlns:rdf="http://www.w3.org/1999/02/22-rdf-syntax-ns#"
   xmlns:cc="http://creativecommons.org/ns#"
   xmlns:dc="http://purl.org/dc/elements/1.1/">
  <title
     id="title1179">NumLPA logo</title>
  <sodipodi:namedview
     id="namedview1118"
     pagecolor="#ffffff"
     bordercolor="#000000"
     borderopacity="0.25"
     inkscape:pageshadow="2"
     inkscape:pageopacity="0.0"
     inkscape:pagecheckerboard="0"
     inkscape:document-units="px"
     showgrid="true"
     inkscape:zoom="0.75187995"
     inkscape:cx="516.03983"
     inkscape:cy="224.10493"
     inkscape:window-width="1920"
     inkscape:window-height="1016"
     inkscape:window-x="0"
     inkscape:window-y="27"
     inkscape:window-maximized="1"
     inkscape:current-layer="layer1"
     inkscape:snap-grids="true"
     inkscape:snap-to-guides="true"
     inkscape:snap-smooth-nodes="true"
     inkscape:snap-intersection-paths="true"
     inkscape:object-paths="true"
     inkscape:snap-center="false"
     inkscape:snap-midpoints="true"
     inkscape:snap-nodes="true"
     inkscape:snap-bbox="true">
    <inkscape:grid
       type="xygrid"
       id="grid1203"
       originx="-21.166666"
       originy="-31.749998" />
  </sodipodi:namedview>
  <defs
     id="defs1113" />
  <g
     inkscape:label="Layer 1"
     inkscape:groupmode="layer"
     id="layer1"
     transform="translate(-21.166666,-31.75)">
    <path
       style="color:#000000;fill:#4b4b4b;stroke-width:5.26521;stroke-linecap:round;stroke-linejoin:round;-inkscape-stroke:none"
       d="m 103.18852,83.34375 c 0.0195,0.438573 0.0331,0.878909 0.0331,1.322401 0,11.269416 -6.365564,21.017219 -15.705501,25.855779 l 2.636017,4.56613 C 101.06146,109.314 108.51277,97.844189 108.51277,84.666151 c 0,-0.443452 -0.0169,-0.882968 -0.0336,-1.322401 z"
       id="path864" />
    <g
       aria-label="NumLPA"
       id="text3832"
       style="font-weight:bold;font-size:35.2778px;font-family:'DejaVu Sans';-inkscape-font-specification:'DejaVu Sans Bold';fill:#ffcc00;stroke-width:5.29167;stroke-linecap:round;stroke-linejoin:round"
       transform="translate(-5.0605176,3.8248808)">
      <path
         d="m 121.47718,92.165798 h 7.40696 l 9.35345,17.638902 V 92.165798 h 6.2873 v 25.717652 h -7.40696 l -9.35344,-17.6389 v 17.6389 h -6.28731 z"
         id="path7414" />
      <path
         d="M 150.51936,110.37314 V 98.590906 h 6.20118 v 1.929254 q 0,1.56752 -0.0172,3.94464 -0.0172,2.35989 -0.0172,3.15226 0,2.32544 0.12058,3.35897 0.12058,1.01631 0.41341,1.48139 0.37897,0.6029 0.98186,0.93018 0.62011,0.32729 1.41249,0.32729 1.92925,0 3.03168,-1.4814 1.10243,-1.48139 1.10243,-4.11689 v -9.525694 h 6.16673 v 19.292544 h -6.16673 v -2.79053 q -1.39526,1.6881 -2.96278,2.4977 -1.55029,0.79237 -3.42787,0.79237 -3.34175,0 -5.09875,-2.04983 -1.73977,-2.04983 -1.73977,-5.96002 z"
         id="path7416" />
      <path
         d="m 193.72089,101.79485 q 1.17133,-1.79145 2.7733,-2.721631 1.6192,-0.947402 3.54845,-0.947402 3.32452,0 5.06429,2.049833 1.73978,2.04983 1.73978,5.96002 v 11.74778 h -6.20118 v -10.05968 q 0.0172,-0.22393 0.0172,-0.46509 0.0172,-0.24116 0.0172,-0.68902 0,-2.04983 -0.60289,-2.96278 -0.60289,-0.93018 -1.94648,-0.93018 -1.757,0 -2.72163,1.44694 -0.9474,1.44694 -0.98185,4.18579 v 9.47402 h -6.20118 v -10.05968 q 0,-3.20394 -0.55121,-4.11689 -0.55122,-0.93018 -1.96371,-0.93018 -1.77422,0 -2.73885,1.46417 -0.96463,1.44694 -0.96463,4.15134 v 9.49124 h -6.20117 V 98.590906 h 6.20117 v 2.824984 q 1.13689,-1.636426 2.60105,-2.463249 1.48139,-0.826824 3.25562,-0.826824 1.99816,0 3.53122,0.964628 1.53307,0.964625 2.32545,2.704405 z"
         id="path7418" />
      <path
         d="m 212.87563,92.165798 h 6.63181 v 20.705042 h 11.64443 v 5.01261 h -18.27624 z"
         style="fill:#4b4b4b"
         id="path7420" />
      <path
         d="m 235.35489,92.165798 h 11.00709 q 4.90926,0 7.52754,2.187637 2.6355,2.170412 2.6355,6.201175 0,4.04799 -2.6355,6.23563 -2.61828,2.17041 -7.52754,2.17041 h -4.37527 v 8.9228 h -6.63182 z m 6.63182,4.805912 v 7.18303 h 3.66903 q 1.92925,0 2.98,-0.93018 1.05076,-0.9474 1.05076,-2.66995 0,-1.722547 -1.05076,-2.652724 -1.05075,-0.930176 -2.98,-0.930176 z"
         style="fill:#4b4b4b"
         id="path7422" />
      <path
         d="m 273.57826,113.19812 h -10.36975 l -1.63642,4.68533 h -6.66626 l 9.52569,-25.717652 h 7.9065 l 9.5257,25.717652 h -6.66627 z m -8.7161,-4.77146 h 7.04523 l -3.514,-10.231941 z"
         style="fill:#4b4b4b"
         id="path7424" />
    </g>
    <g
       id="g7680">
      <path
         id="path4415"
         style="opacity:1;fill:#4b4b4b;fill-opacity:1;stroke:none;stroke-width:2;stroke-linecap:round;stroke-linejoin:round;stroke-miterlimit:4;stroke-dasharray:none;stroke-opacity:1"
         d="m 280,285 a 35,35 0 0 0 -34.63281,29.99805 h 31.74804 l 15.83594,-27.42774 A 35,35 0 0 0 280,285 Z m 21.60938,7.56836 -17.2793,29.92773 -0.002,0.004 a 5.0000125,5.0000125 0 0 1 -0.0137,0.0195 5.0000125,5.0000125 0 0 1 -0.43945,0.62695 4.9999937,4.9999937 0 0 1 -0.13867,0.15821 5.0000125,5.0000125 0 0 1 -0.42383,0.42578 4.9999937,4.9999937 0 0 1 -0.16992,0.14844 5.0000125,5.0000125 0 0 1 -0.625,0.4375 5.0000125,5.0000125 0 0 1 -0.0508,0.0273 5.0000125,5.0000125 0 0 1 -0.6875,0.32031 4.9999937,4.9999937 0 0 1 -0.20118,0.0684 5.0000125,5.0000125 0 0 1 -0.5664,0.15235 4.9999937,4.9999937 0 0 1 -0.23242,0.0469 A 5.0000125,5.0000125 0 0 1 280,325 H 245.36719 A 35,35 0 0 0 280,355 35,35 0 0 0 315,320 35,35 0 0 0 301.60938,292.56836 Z"
         transform="scale(0.26458333)" />
      <path
         id="path37106-5"
         style="color:#000000;fill:#ffcc00;stroke-width:9.99999;stroke-linecap:round;stroke-linejoin:bevel;-inkscape-stroke:none"
         d="m 198.33789,188.55473 c -32.75805,20.35689 -56.28517,51.82642 -66.85547,87.94531 2.66049,-0.97037 5.52741,-1.5 8.51563,-1.5 h 70.0039 c 8.54916,0 16.12211,4.33781 20.63477,10.92188 4.09582,-5.93275 9.22731,-11.0788 15.14844,-15.19141 l -20.14063,-34.88086 c -4.75769,2.7478 -10.84203,1.11983 -13.5918,-3.63672 l -9.99804,-17.32227 c -2.67077,-4.63082 -1.20552,-10.54441 3.31836,-13.39257 0.10318,-0.0649 0.21596,-0.13744 0.32031,-0.20313 z m 193.59375,24.57617 c -0.48986,2.78924 -1.4649,5.53517 -2.95898,8.12305 L 353.9707,281.8809 c -4.27458,7.40379 -11.81904,11.79216 -19.77734,12.4082 3.09007,6.51352 4.98096,13.53062 5.58203,20.71485 l 40.2793,-0.002 c -10e-4,-5.49439 4.45092,-9.94998 9.94531,-9.95312 l 20,0.004 c 5.34601,0.002 9.73494,4.22822 9.93945,9.57032 0.004,0.12181 0.0118,0.25571 0.0156,0.3789 h 14.71094 c -1.25057,-38.54775 -16.73966,-74.6575 -42.73438,-101.87109 z m -137.49219,161.13476 -20.13867,34.88282 c 4.75892,2.74637 6.39132,8.83003 3.64649,13.58984 l -10.00196,17.31836 c -2.67446,4.62918 -8.52877,6.31786 -13.25781,3.82422 -0.10779,-0.0571 -0.2269,-0.12029 -0.33594,-0.17774 l -7.35547,12.74024 c 45.65884,24.42244 100.34671,24.42912 146.00586,0.008 l -7.39257,-12.80469 c -0.0759,0.0405 -0.1506,0.0826 -0.22657,0.12305 -4.72844,2.49878 -10.58633,0.81326 -13.26367,-3.81641 l -9.9668,-17.25781 c -2.70401,-4.71904 -1.1183,-10.73484 3.56055,-13.50781 L 305.55273,374.26758 C 297.56114,378.03656 288.83576,379.99398 280,380 c -8.83855,-0.005 -17.56673,-1.9636 -25.56055,-5.73438 z"
         transform="scale(0.26458333)"
         inkscape:label="path37106-5"
         sodipodi:nodetypes="ccsscccccscccccccccccccsccccccccccccccccsc" />
      <path
         id="path3054"
         style="color:#000000;fill:#4b4b4b;stroke-width:0.999999;stroke-linecap:round;stroke-linejoin:round;-inkscape-stroke:none"
         d="m 280.03516,187.53711 c -22.54874,-0.0457 -45.39973,5.65859 -66.28516,17.7168 -1.50551,0.86925 -2.94052,1.77285 -4.34766,2.6582 -1.13733,0.71565 -1.50563,2.20346 -0.83398,3.36719 l 9.99805,17.3164 c 0.71255,1.23355 2.31113,1.62427 3.51171,0.85742 1.37946,-0.88035 2.76438,-1.73616 4.17188,-2.54882 20.07055,-11.58777 42.24541,-15.98296 63.62305,-14.00586 l 13.35156,-23.12305 c -0.24635,-0.14192 -0.5236,-0.24652 -0.82617,-0.29883 -7.36462,-1.2707 -14.84704,-1.92422 -22.36328,-1.93945 z M 389.875,315 c 0.0737,1.6576 0.125,3.32186 0.125,4.99805 0,42.59307 -24.05883,79.43518 -59.35938,97.72265 l 9.9629,17.25782 c 41.23198,-21.82326 69.39453,-65.17372 69.39453,-114.98047 0,-1.67605 -0.0638,-3.3372 -0.12696,-4.99805 z m -234.26562,50 c 2.5e-4,0.2843 0.0483,0.57509 0.15429,0.86328 10.32739,28.05319 30.14104,52.80715 57.98828,68.88477 1.50555,0.86917 3.00627,1.65961 4.47657,2.43554 1.18844,0.62714 2.66004,0.20259 3.33203,-0.96093 l 9.99804,-17.31836 c 0.71201,-1.23387 0.25074,-2.81244 -1.01367,-3.46875 -1.45213,-0.75447 -2.88544,-1.5253 -4.29297,-2.33789 C 206.18136,401.50991 191.28715,384.50213 182.31055,365 Z"
         transform="scale(0.26458333)" />
      <path
         id="path2468"
         style="color:#000000;fill:#4b4b4b;stroke-width:10;stroke-linecap:round;stroke-linejoin:bevel;-inkscape-stroke:none"
         d="m 332.32617,173.70703 c -5.05149,0.093 -9.88358,2.77491 -12.63867,7.54688 l -35,60.62304 c -3.65896,6.33751 -2.2897,14.00228 2.93555,18.64649 a 60,60 0 0 1 17.93164,5.21094 l 40.11523,-69.48047 a 5.0000122,5.0000122 0 0 1 0.0156,-0.0176 5.0000126,5.0000126 0 0 1 1.14648,-1.30664 5.0000122,5.0000122 0 0 1 0.21875,-0.1875 5.0000126,5.0000126 0 0 1 1.50781,-0.74414 5.0000122,5.0000122 0 0 1 0.31055,-0.082 5.0000126,5.0000126 0 0 1 1.68555,-0.10938 5.0000122,5.0000122 0 0 1 0.27148,0.0508 5.0000126,5.0000126 0 0 1 1.66992,0.56836 5.0000122,5.0000122 0 0 1 0.006,0.002 5.0000122,5.0000122 0 0 1 0.002,0 5.0000126,5.0000126 0 0 1 0.002,0.002 5.0000126,5.0000126 0 0 1 1.33789,1.17578 5.0000122,5.0000122 0 0 1 0.16602,0.19141 5.0000126,5.0000126 0 0 1 0.7539,1.5332 5.0000122,5.0000122 0 0 1 0.0762,0.2793 5.0000126,5.0000126 0 0 1 0.11328,1.71093 5.0000122,5.0000122 0 0 1 -0.0449,0.23633 5.0000126,5.0000126 0 0 1 -0.57422,1.69922 L 314.219,270.73645 a 60,60 0 0 1 13.48047,12.92187 c 6.6337,2.2016 13.95278,-0.44251 17.61133,-6.77929 l 35.00195,-60.625 c 4.19822,-7.27157 1.78133,-16.292 -5.49023,-20.49024 l -34.64258,-20 c -2.4996,-1.44314 -5.2075,-2.10535 -7.85352,-2.05664 z M 139.99805,285 c -8.39648,0 -15,6.60353 -15,15 v 40.00195 c 0,8.39648 6.60352,15 15,15 H 210 c 7.31792,0 13.27031,-5.01793 14.67969,-11.86523 a 59.999998,59.999998 0 0 1 -4.45313,-18.13477 h -80.22851 a 5.0000123,5.0000123 0 0 1 -0.0234,-0.004 5.0000125,5.0000125 0 0 1 -1.70508,-0.33985 5.0000123,5.0000123 0 0 1 -0.27148,-0.0957 5.0000125,5.0000125 0 0 1 -1.39844,-0.93555 5.0000123,5.0000123 0 0 1 -0.22656,-0.22656 5.0000125,5.0000125 0 0 1 -0.9375,-1.4043 5.0000123,5.0000123 0 0 1 -0.0918,-0.26171 5.0000125,5.0000125 0 0 1 -0.3418,-1.73047 5.0000123,5.0000123 0 0 1 -0.002,-0.006 5.0000123,5.0000123 0 0 1 0,-0.002 5.0000125,5.0000125 0 0 1 0,-0.002 5.0000125,5.0000125 0 0 1 0.34961,-1.74805 5.0000123,5.0000123 0 0 1 0.082,-0.23828 5.0000125,5.0000125 0 0 1 0.95117,-1.41992 5.0000123,5.0000123 0 0 1 0.20508,-0.20508 5.0000125,5.0000125 0 0 1 1.42383,-0.95312 5.0000123,5.0000123 0 0 1 0.22656,-0.0801 5.0000125,5.0000125 0 0 1 1.75977,-0.35156 h 80.22851 a 59.999998,59.999998 0 0 1 4.45117,-18.13477 C 223.26752,290.01753 217.31709,285 210,285 Z"
         transform="scale(0.26458333)"
         inkscape:label="path2468" />
    </g>
    <path
       style="color:#000000;opacity:0.543454;fill:#a54b4b;stroke-width:2.64583;stroke-linecap:round;stroke-linejoin:round;-inkscape-stroke:none"
       d="m 74.083334,84.666667 c 0.661458,-1.145679 8.598958,-14.893832 8.598958,-14.893832"
       id="path6139" />
  </g>
  <metadata
     id="metadata1177">
    <rdf:RDF>
      <cc:Work
         rdf:about="">
        <dc:title>NumLPA logo</dc:title>
        <dc:date>2023-03-09</dc:date>
        <dc:creator>
          <cc:Agent>
            <dc:title>Dunstan Becht</dc:title>
          </cc:Agent>
        </dc:creator>
        <cc:license
           rdf:resource="http://creativecommons.org/licenses/by-sa/4.0/" />
      </cc:Work>
      <cc:License
         rdf:about="http://creativecommons.org/licenses/by-sa/4.0/">
        <cc:permits
           rdf:resource="http://creativecommons.org/ns#Reproduction" />
        <cc:permits
           rdf:resource="http://creativecommons.org/ns#Distribution" />
        <cc:requires
           rdf:resource="http://creativecommons.org/ns#Notice" />
        <cc:requires
           rdf:resource="http://creativecommons.org/ns#Attribution" />
        <cc:permits
           rdf:resource="http://creativecommons.org/ns#DerivativeWorks" />
        <cc:requires
           rdf:resource="http://creativecommons.org/ns#ShareAlike" />
      </cc:License>
    </rdf:RDF>
  </metadata>
</svg>
