<?xml version="1.0" encoding="utf-8"?>
<svg viewBox="0 0 552 129" xmlns="http://www.w3.org/2000/svg">
  <defs>
    <style>.cls-1{fill:#fff;}.cls-2{fill:#1d1d1b;}</style>
  </defs>
  <polygon class="cls-2" points="67.597 43.985 67.597 62.775 71.197 62.775 71.197 51.245 78.507 62.775 81.727 62.775 81.727 43.985 78.107 43.985 78.107 55.495 70.807 43.985 67.597 43.985" style="fill: rgb(255, 255, 255);"/>
  <rect class="cls-2" x="101.167" y="43.985" width="3.61" height="18.8" style="fill: rgb(255, 255, 255);"/>
  <path class="cls-2" d="M 106.887 60.455 C 108.707 62.325 110.827 62.935 113.627 62.935 C 117.477 62.935 120.457 60.875 120.457 57.235 C 120.561 55.76 120.043 54.309 119.027 53.235 C 118.042 52.382 116.807 51.873 115.507 51.785 L 113.337 51.485 C 112.708 51.417 112.115 51.159 111.637 50.745 C 111.275 50.391 111.079 49.901 111.097 49.395 C 111.097 48.095 112.017 47.015 113.937 47.015 C 115.322 46.915 116.687 47.384 117.717 48.315 L 119.987 46.015 C 118.391 44.462 116.208 43.665 113.987 43.825 C 109.987 43.825 107.567 46.175 107.567 49.535 C 107.486 50.898 107.967 52.235 108.897 53.235 C 109.886 54.121 111.134 54.665 112.457 54.785 L 114.687 55.095 C 115.288 55.13 115.861 55.362 116.317 55.755 C 116.718 56.184 116.924 56.759 116.887 57.345 C 116.887 58.855 115.747 59.665 113.627 59.665 C 111.99 59.769 110.382 59.198 109.177 58.085 L 106.887 60.455 Z" style="fill: rgb(255, 255, 255);"/>
  <path class="cls-2" d="M 84.677 53.375 C 84.677 56.625 84.627 58.985 86.487 60.885 C 87.794 62.238 89.606 62.985 91.487 62.945 C 94.97 63.088 97.955 60.476 98.277 57.005 L 94.597 57.005 C 94.389 58.554 93.05 59.699 91.487 59.665 C 90.609 59.692 89.766 59.325 89.187 58.665 C 88.487 57.875 88.277 56.975 88.277 53.355 C 88.277 49.735 88.487 48.845 89.187 48.055 C 89.766 47.395 90.609 47.028 91.487 47.055 C 93.053 47.021 94.393 48.172 94.597 49.725 L 98.247 49.725 C 97.607 45.785 94.907 43.785 91.457 43.785 C 89.575 43.741 87.762 44.488 86.457 45.845 C 84.587 47.745 84.647 50.095 84.647 53.335" style="fill: rgb(255, 255, 255);"/>
  <polygon class="cls-2" points="18.977 43.985 18.977 62.775 22.587 62.775 22.587 55.145 29.867 55.145 29.867 51.865 22.587 51.865 22.587 47.255 31.127 47.255 31.127 43.985 18.977 43.985" style="fill: rgb(255, 255, 255);"/>
  <path class="cls-2" d="M 43.627 54.665 C 45.72 53.945 47.091 51.936 46.997 49.725 C 47.081 46.415 44.3 43.75 40.997 43.975 L 33.787 43.975 L 33.787 62.765 L 37.387 62.765 L 37.387 55.265 L 39.967 55.265 L 43.577 62.765 L 47.737 62.765 L 43.627 54.665 Z M 40.407 52.215 L 37.027 52.215 L 37.027 47.215 L 40.417 47.215 C 42.341 47.215 43.544 49.298 42.582 50.965 C 42.135 51.738 41.31 52.215 40.417 52.215" style="fill: rgb(255, 255, 255);"/>
  <path class="cls-2" d="M 58.527 43.985 L 55.707 43.985 L 49.007 62.775 L 52.757 62.775 L 53.867 59.455 L 60.417 59.455 L 61.497 62.775 L 65.257 62.775 L 58.527 43.985 Z M 54.877 56.365 L 57.217 49.525 L 59.467 56.365 L 54.877 56.365 Z" style="fill: rgb(255, 255, 255);"/>
  <path class="cls-2" d="M 18.717 77.375 C 18.717 80.625 18.717 82.975 20.537 84.875 C 21.842 86.231 23.655 86.979 25.537 86.935 C 28.957 86.935 31.677 84.935 32.317 80.985 L 28.637 80.985 C 28.438 82.542 27.096 83.698 25.527 83.665 C 24.648 83.686 23.803 83.321 23.217 82.665 C 22.517 81.865 22.307 80.965 22.307 77.355 C 22.307 73.745 22.517 72.845 23.217 72.045 C 23.803 71.389 24.648 71.023 25.527 71.045 C 27.093 71.011 28.433 72.162 28.637 73.715 L 32.277 73.715 C 31.637 69.775 28.947 67.775 25.497 67.775 C 23.616 67.734 21.803 68.48 20.497 69.835 C 18.627 71.735 18.677 74.085 18.677 77.335" style="fill: rgb(255, 255, 255);"/>
  <path class="cls-2" d="M 18.717 77.375 L 18.717 77.835 C 18.717 80.835 18.717 83.065 20.537 84.835 C 21.842 86.191 23.655 86.939 25.537 86.895 C 28.957 86.895 31.677 84.895 32.317 80.945 L 28.637 80.945 C 28.457 82.518 27.11 83.696 25.527 83.665 C 24.648 83.686 23.803 83.321 23.217 82.665 C 22.517 81.865 22.307 80.965 22.307 77.355 C 22.307 73.745 22.517 72.845 23.217 72.045 C 23.803 71.389 24.648 71.023 25.527 71.045 C 27.093 71.011 28.433 72.162 28.637 73.715 L 32.277 73.715 C 31.637 69.775 28.947 67.775 25.497 67.775 C 23.616 67.734 21.803 68.48 20.497 69.835 C 18.717 71.645 18.677 73.835 18.677 76.835 C 18.677 73.835 18.677 71.605 20.497 69.835 C 21.803 68.48 23.616 67.734 25.497 67.775 C 28.947 67.775 31.637 69.775 32.277 73.715 L 28.637 73.715 C 28.433 72.162 27.093 71.011 25.527 71.045 C 24.648 71.023 23.803 71.389 23.217 72.045 C 22.517 72.835 22.307 73.735 22.307 77.355 C 22.307 80.975 22.517 81.865 23.217 82.665 C 23.803 83.321 24.648 83.686 25.527 83.665 C 27.093 83.699 28.433 82.548 28.637 80.995 L 32.277 80.995 C 31.637 84.935 28.917 86.945 25.497 86.945 C 23.615 86.989 21.802 86.241 20.497 84.885 C 18.717 83.075 18.677 80.885 18.677 77.885 L 18.677 77.425"/>
  <path class="cls-2" d="M 45.047 78.665 C 47.14 77.945 48.511 75.936 48.417 73.725 C 48.501 70.414 45.722 67.746 42.417 67.965 L 35.217 67.965 L 35.217 86.775 L 38.817 86.775 L 38.817 79.275 L 41.407 79.275 L 45.007 86.775 L 49.187 86.775 L 45.047 78.665 Z M 42.207 76.235 L 38.807 76.235 L 38.807 71.235 L 42.207 71.235 C 44.131 71.235 45.334 73.318 44.372 74.985 C 43.925 75.758 43.1 76.235 42.207 76.235" style="fill: rgb(255, 255, 255);"/>
  <path class="cls-2" d="M 45.047 78.665 C 47.14 77.945 48.511 75.936 48.417 73.725 C 48.501 70.414 45.722 67.746 42.417 67.965 L 35.217 67.965 L 35.217 86.775 L 38.817 86.775 L 38.817 79.275 L 41.407 79.275 L 45.007 86.775 L 49.187 86.775 L 45.047 78.665 L 49.177 86.775 L 44.997 86.775 L 41.397 79.275 L 38.807 79.275 L 38.807 86.775 L 35.207 86.775 L 35.207 67.975 L 42.437 67.975 C 45.742 67.756 48.521 70.424 48.437 73.735 C 48.523 75.948 47.144 77.954 45.047 78.665 M 42.207 76.235 L 38.807 76.235 L 38.807 71.235 L 42.207 71.235 C 44.131 71.235 45.334 73.318 44.372 74.985 C 43.925 75.758 43.1 76.235 42.207 76.235 C 44.131 76.235 45.334 74.152 44.372 72.485 C 43.925 71.711 43.1 71.235 42.207 71.235 L 38.807 71.235 L 38.807 76.235 L 42.207 76.235 Z"/>
  <rect class="cls-2" x="52.177" y="67.975" width="3.59" height="18.81" style="fill: rgb(255, 255, 255);"/>
  <polygon class="cls-2" points="52.177 67.975 52.177 67.975 52.177 86.785 55.767 86.785 55.767 67.975 52.177 67.975 55.767 67.975 55.767 86.785 52.177 86.785 52.177 67.975"/>
  <path class="cls-2" d="M 58.917 77.375 C 58.917 80.625 58.917 82.975 60.737 84.875 C 62.042 86.23 63.856 86.978 65.737 86.935 C 69.157 86.935 71.877 84.935 72.527 80.985 L 68.837 80.985 C 68.638 82.542 67.296 83.698 65.727 83.665 C 64.851 83.683 64.011 83.318 63.427 82.665 C 62.727 81.865 62.527 80.965 62.527 77.355 C 62.527 73.745 62.727 72.845 63.427 72.045 C 64.011 71.392 64.851 71.026 65.727 71.045 C 67.293 71.011 68.633 72.162 68.837 73.715 L 72.497 73.715 C 71.837 69.775 69.157 67.775 65.707 67.775 C 63.826 67.734 62.013 68.48 60.707 69.835 C 58.847 71.735 58.887 74.085 58.887 77.335" style="fill: rgb(255, 255, 255);"/>
  <path class="cls-2" d="M 58.917 77.375 L 58.917 77.825 C 58.917 80.825 58.917 83.065 60.737 84.825 C 62.042 86.18 63.856 86.928 65.737 86.885 C 69.157 86.885 71.877 84.885 72.527 80.935 L 68.837 80.935 C 68.662 82.512 67.313 83.695 65.727 83.665 C 64.851 83.683 64.011 83.318 63.427 82.665 C 62.727 81.865 62.527 80.965 62.527 77.355 C 62.527 73.745 62.727 72.845 63.427 72.045 C 64.011 71.392 64.851 71.026 65.727 71.045 C 67.293 71.011 68.633 72.162 68.837 73.715 L 72.497 73.715 C 71.837 69.775 69.157 67.775 65.707 67.775 C 63.826 67.734 62.013 68.48 60.707 69.835 C 58.937 71.645 58.887 73.835 58.887 76.835 C 58.887 73.835 58.887 71.605 60.707 69.835 C 62.013 68.48 63.826 67.734 65.707 67.775 C 69.157 67.775 71.847 69.775 72.497 73.715 L 68.837 73.715 C 68.633 72.162 67.293 71.011 65.727 71.045 C 64.851 71.026 64.011 71.392 63.427 72.045 C 62.727 72.835 62.527 73.735 62.527 77.355 C 62.527 80.975 62.727 81.865 63.427 82.665 C 64.011 83.318 64.851 83.683 65.727 83.665 C 67.293 83.699 68.633 82.548 68.837 80.995 L 72.497 80.995 C 71.837 84.935 69.127 86.945 65.707 86.945 C 63.826 86.988 62.012 86.24 60.707 84.885 C 58.937 83.075 58.887 80.885 58.887 77.885 L 58.917 77.375 Z"/>
  <polygon class="cls-2" points="75.887 67.975 75.887 86.785 79.477 86.785 79.477 81.125 81.867 78.225 86.607 86.785 90.807 86.785 84.257 75.445 90.367 67.975 85.987 67.975 79.477 76.165 79.477 67.975 75.887 67.975" style="fill: rgb(255, 255, 255);"/>
  <polygon class="cls-2" points="75.887 67.975 75.887 67.975 75.887 86.785 79.477 86.785 79.477 81.125 81.867 78.225 86.607 86.785 90.807 86.785 84.257 75.445 90.367 67.975 85.987 67.975 79.477 76.165 79.477 67.975 75.887 67.975 79.477 67.975 79.477 76.165 85.987 67.975 90.367 67.975 84.257 75.445 90.807 86.785 86.607 86.785 81.867 78.225 79.477 81.125 79.477 86.785 75.887 86.785 75.887 67.975"/>
  <polygon class="cls-2" points="17.327 22.115 22.667 22.115 22.667 39.055 25.277 39.055 25.277 22.115 30.617 22.115 30.617 19.685 17.327 19.685 17.327 22.115" style="fill: rgb(255, 255, 255);"/>
  <polygon class="cls-2" points="44.417 28.075 36.297 28.075 36.297 19.685 33.687 19.685 33.687 39.045 36.297 39.045 36.297 30.495 44.417 30.495 44.417 39.045 47.017 39.045 47.017 19.685 44.417 19.685 44.417 28.075" style="fill: rgb(255, 255, 255);"/>
  <polygon class="cls-2" points="62.777 22.115 62.777 19.685 50.697 19.685 50.697 39.045 62.777 39.045 62.777 36.615 53.307 36.615 53.307 30.495 61.377 30.495 61.377 28.075 53.307 28.075 53.307 22.115 62.777 22.115" style="fill: rgb(255, 255, 255);"/>
  <rect class="cls-2" x="18.977" y="92.315" width="2.53" height="18.76" style="fill: rgb(255, 255, 255);"/>
  <polygon class="cls-2" points="39.107 111.075 36.827 111.075 27.817 97.265 27.817 111.075 25.287 111.075 25.287 92.315 27.577 92.315 36.587 106.095 36.587 92.315 39.107 92.315 39.107 111.075" style="fill: rgb(255, 255, 255);"/>
  <path class="cls-2" d="M 48.447 111.235 C 46.066 111.386 43.741 110.474 42.097 108.745 L 41.887 108.525 L 43.627 106.765 L 43.847 106.985 C 45.029 108.289 46.74 108.984 48.497 108.875 C 50.937 108.875 52.397 107.735 52.397 105.825 C 52.435 105.085 52.168 104.362 51.657 103.825 C 51.041 103.329 50.278 103.051 49.487 103.035 L 47.387 102.665 C 46.128 102.511 44.936 102.009 43.947 101.215 C 42.951 100.278 42.418 98.951 42.487 97.585 C 42.487 94.285 44.857 92.165 48.487 92.165 C 50.538 92.059 52.54 92.809 54.017 94.235 L 54.247 94.455 L 52.587 96.135 L 52.367 95.935 C 51.298 94.907 49.847 94.374 48.367 94.465 C 46.197 94.465 44.917 95.605 44.917 97.515 C 44.864 98.206 45.116 98.886 45.607 99.375 C 46.269 99.87 47.047 100.187 47.867 100.295 L 49.867 100.605 C 51.138 100.676 52.353 101.148 53.337 101.955 C 54.421 102.922 55.015 104.323 54.957 105.775 C 54.957 109.095 52.417 111.235 48.477 111.235" style="fill: rgb(255, 255, 255);"/>
  <polygon class="cls-2" points="64.197 111.075 61.667 111.075 61.667 94.675 56.497 94.675 56.497 92.315 69.367 92.315 69.367 94.675 64.197 94.675 64.197 111.075" style="fill: rgb(255, 255, 255);"/>
  <rect class="cls-2" x="72.017" y="92.315" width="2.52" height="18.76" style="fill: rgb(255, 255, 255);"/>
  <polygon class="cls-2" points="84.897 111.075 82.367 111.075 82.367 94.675 77.197 94.675 77.197 92.315 90.067 92.315 90.067 94.675 84.897 94.675 84.897 111.075" style="fill: rgb(255, 255, 255);"/>
  <path class="cls-2" d="M 98.707 111.235 C 95.072 111.381 92.072 108.422 92.167 104.785 L 92.167 92.315 L 94.697 92.315 L 94.697 104.665 C 94.697 107.245 96.267 108.915 98.697 108.915 C 101.127 108.915 102.697 107.245 102.697 104.665 L 102.697 92.315 L 105.227 92.315 L 105.227 104.785 C 105.323 108.43 102.31 111.393 98.667 111.235" style="fill: rgb(255, 255, 255);"/>
  <polygon class="cls-2" points="115.107 111.075 112.587 111.075 112.587 94.675 107.417 94.675 107.417 92.315 120.287 92.315 120.287 94.675 115.107 94.675 115.107 111.075" style="fill: rgb(255, 255, 255);"/>
  <polygon class="cls-2" points="134.097 111.075 122.387 111.075 122.387 92.315 134.097 92.315 134.097 94.675 124.917 94.675 124.917 100.455 132.747 100.455 132.747 102.805 124.917 102.805 124.917 108.735 134.097 108.735 134.097 111.075" style="fill: rgb(255, 255, 255);"/>
  <rect x="3.274" y="3.877" width="544.546" height="121.063" style="fill-rule: nonzero; stroke-width: 4px; fill: none; stroke: rgb(255, 255, 255);"/>
  <path style="fill: rgb(216, 216, 216); stroke-width: 4px; stroke: rgb(255, 255, 255);" d="M 113.311 4.775 L 155.645 123.982"/>
  <text style="fill: rgb(255, 255, 255); font-family: &quot;Trebuchet MS&quot;; font-size: 128px; white-space: pre;"><tspan x="129.054" y="110.452">VEM</tspan><tspan style="font-size: 105px;">SEG</tspan></text>
</svg>